<?xml version="1.0" encoding="UTF-8" standalone="no"?>
<!-- Created with Inkscape (http://www.inkscape.org/) -->

<svg
   width="210mm"
   height="297mm"
   viewBox="0 0 210 297"
   version="1.1"
   id="svg1"
   inkscape:version="1.3.2 (091e20e, 2023-11-25, custom)"
   sodipodi:docname="Bistro_retro.svg"
   xmlns:inkscape="http://www.inkscape.org/namespaces/inkscape"
   xmlns:sodipodi="http://sodipodi.sourceforge.net/DTD/sodipodi-0.dtd"
   xmlns:xlink="http://www.w3.org/1999/xlink"
   xmlns="http://www.w3.org/2000/svg"
   xmlns:svg="http://www.w3.org/2000/svg">
  <sodipodi:namedview
     id="namedview1"
     pagecolor="#505050"
     bordercolor="#ffffff"
     borderopacity="1"
     inkscape:showpageshadow="0"
     inkscape:pageopacity="0"
     inkscape:pagecheckerboard="1"
     inkscape:deskcolor="#505050"
     inkscape:document-units="mm"
     inkscape:zoom="1.4485269"
     inkscape:cx="419.04641"
     inkscape:cy="464.95512"
     inkscape:window-width="1920"
     inkscape:window-height="1009"
     inkscape:window-x="-8"
     inkscape:window-y="-8"
     inkscape:window-maximized="1"
     inkscape:current-layer="layer1"
     showguides="true" />
  <defs
     id="defs1">
    <linearGradient
       id="linearGradient18"
       inkscape:collect="always">
      <stop
         style="stop-color:#fedab9;stop-opacity:1;"
         offset="0"
         id="stop18" />
      <stop
         style="stop-color:#a74f02;stop-opacity:1;"
         offset="1"
         id="stop19" />
    </linearGradient>
    <inkscape:path-effect
       effect="lattice2"
       gridpoint0="96.798813,144.6895"
       gridpoint1="132.75701,144.94782"
       gridpoint2="97.509181,155.54025"
       gridpoint3="132.43412,155.54025"
       gridpoint4="106.24042,145.98108"
       gridpoint5="123.70289,145.98108"
       gridpoint6="106.24042,156.05688"
       gridpoint7="123.57373,156.3152"
       gridpoint8x9="114.90707,147.20808"
       gridpoint10x11="114.97165,157.02556"
       gridpoint12="97.509181,148.37087"
       gridpoint13="132.43412,148.37087"
       gridpoint14="97.509181,153.15046"
       gridpoint15="132.43412,153.15046"
       gridpoint16="106.24042,148.37087"
       gridpoint17="123.70289,148.37087"
       gridpoint18="106.24042,153.15046"
       gridpoint19="123.70289,153.15046"
       gridpoint20x21="114.97165,148.37087"
       gridpoint22x23="114.97165,153.15046"
       gridpoint24x26="97.509181,150.76066"
       gridpoint25x27="132.43412,150.76066"
       gridpoint28x30="106.24042,150.76066"
       gridpoint29x31="123.70289,150.76066"
       gridpoint32x33x34x35="114.97165,150.76066"
       id="path-effect1"
       is_visible="true"
       lpeversion="1"
       horizontal_mirror="false"
       vertical_mirror="false"
       perimetral="false"
       live_update="true" />
    <inkscape:path-effect
       effect="envelope"
       id="path-effect11"
       is_visible="true"
       lpeversion="1"
       yy="true"
       xx="true"
       bendpath1="M 97.509181,145.98108 H 132.43412"
       bendpath2="m 132.43412,145.98108 v 9.55917"
       bendpath3="M 97.509181,155.54025 H 132.43412"
       bendpath4="m 97.509181,145.98108 v 9.55917" />
    <inkscape:path-effect
       effect="perspective-envelope"
       up_left_point="97.509181,145.98108"
       up_right_point="132.43412,145.98108"
       down_left_point="97.509181,155.53425"
       down_right_point="132.43412,155.53425"
       id="path-effect10"
       is_visible="true"
       lpeversion="1"
       deform_type="perspective"
       horizontal_mirror="false"
       vertical_mirror="false"
       overflow_perspective="false" />
    <inkscape:path-effect
       effect="lattice2"
       gridpoint0="85.617436,123.03481"
       gridpoint1="145.28984,123.1691"
       gridpoint2="84.969478,134.53523"
       gridpoint3="144.70668,134.0652"
       gridpoint4="100.61653,127.06361"
       gridpoint5="128.86523,127.39934"
       gridpoint6="100.09817,137.01966"
       gridpoint7="129.12442,137.42254"
       gridpoint8x9="114.70849,128.13796"
       gridpoint10x11="115.22686,138.42974"
       gridpoint12="87.431721,128.78043"
       gridpoint13="141.98525,128.78043"
       gridpoint14="87.172537,132.88555"
       gridpoint15="141.98525,133.55702"
       gridpoint16="101.0701,128.78043"
       gridpoint17="128.34687,128.78043"
       gridpoint18="101.0701,133.55702"
       gridpoint19="128.34687,133.55702"
       gridpoint20x21="114.64369,129.31761"
       gridpoint22x23="114.90288,134.09419"
       gridpoint24x26="87.431721,131.16872"
       gridpoint25x27="141.98525,131.16872"
       gridpoint28x30="101.0701,131.16872"
       gridpoint29x31="128.34687,131.16872"
       gridpoint32x33x34x35="114.70849,131.70589"
       id="path-effect9"
       is_visible="true"
       lpeversion="1"
       horizontal_mirror="false"
       vertical_mirror="false"
       perimetral="false"
       live_update="true" />
    <inkscape:path-effect
       effect="perspective-envelope"
       up_left_point="87.431721,126.39214"
       up_right_point="141.98525,126.39214"
       down_left_point="87.431721,135.94531"
       down_right_point="141.98525,135.94531"
       id="path-effect8"
       is_visible="true"
       lpeversion="1"
       deform_type="perspective"
       horizontal_mirror="false"
       vertical_mirror="false"
       overflow_perspective="false" />
    <rect
       x="338.96505"
       y="166.37592"
       width="260.95477"
       height="107.00526"
       id="rect8" />
    <inkscape:path-effect
       effect="lattice2"
       gridpoint0="111.54759,77.91074"
       gridpoint1="149.42329,77.91074"
       gridpoint2="111.54759,85.516626"
       gridpoint3="148.73832,95.745408"
       gridpoint4="121.01651,77.91074"
       gridpoint5="139.95436,77.91074"
       gridpoint6="121.01651,85.516626"
       gridpoint7="128.90362,102.04707"
       gridpoint8x9="130.48544,77.91074"
       gridpoint10x11="130.48544,85.516626"
       gridpoint12="111.54759,79.812211"
       gridpoint13="149.42329,79.812211"
       gridpoint14="111.54759,83.615155"
       gridpoint15="149.42329,83.615155"
       gridpoint16="121.01651,79.812211"
       gridpoint17="139.95436,79.812211"
       gridpoint18="121.01651,83.615155"
       gridpoint19="139.95436,83.615155"
       gridpoint20x21="130.48544,79.812211"
       gridpoint22x23="130.48544,83.615155"
       gridpoint24x26="111.54759,81.713683"
       gridpoint25x27="149.42329,81.713683"
       gridpoint28x30="121.01651,81.713683"
       gridpoint29x31="139.95436,81.713683"
       gridpoint32x33x34x35="130.48544,81.713683"
       id="path-effect5"
       is_visible="true"
       lpeversion="1"
       horizontal_mirror="false"
       vertical_mirror="false"
       perimetral="false"
       live_update="true" />
    <inkscape:path-effect
       effect="envelope"
       id="path-effect4"
       is_visible="true"
       lpeversion="1"
       yy="true"
       xx="true"
       bendpath1="M 111.54759,77.91074 166.21381,48.979374"
       bendpath2="m 149.42329,77.91074 v 7.605886"
       bendpath3="m 111.54759,85.516626 h 37.8757"
       bendpath4="m 111.54759,77.91074 v 7.605886"
       bendpath1-nodetypes="cc" />
    <linearGradient
       id="linearGradient7"
       inkscape:collect="always">
      <stop
         style="stop-color:#ffe6d5;stop-opacity:1;"
         offset="0"
         id="stop6" />
      <stop
         style="stop-color:#974701;stop-opacity:1;"
         offset="1"
         id="stop7" />
    </linearGradient>
    <radialGradient
       inkscape:collect="always"
       xlink:href="#linearGradient7"
       id="radialGradient6"
       cx="116.48371"
       cy="128.71774"
       fx="116.48371"
       fy="128.71774"
       r="44.804108"
       gradientTransform="matrix(1.2630239,-0.016303,0.00750525,0.57174325,-32.094711,35.342947)"
       gradientUnits="userSpaceOnUse" />
    <radialGradient
       inkscape:collect="always"
       xlink:href="#linearGradient18"
       id="radialGradient19"
       cx="115.47608"
       cy="131.80388"
       fx="115.47608"
       fy="131.80388"
       r="45.814869"
       gradientTransform="matrix(0.93232768,0.02208859,-0.02581129,1.089458,11.255325,-14.957524)"
       gradientUnits="userSpaceOnUse" />
    <filter
       inkscape:collect="always"
       style="color-interpolation-filters:sRGB"
       id="filter19"
       x="-0.015075746"
       y="-0.026370853"
       width="1.0301515"
       height="1.0527413">
      <feGaussianBlur
         inkscape:collect="always"
         stdDeviation="0.087775324"
         id="feGaussianBlur19" />
    </filter>
    <linearGradient
       inkscape:collect="always"
       xlink:href="#linearGradient18"
       id="linearGradient50"
       x1="56.807777"
       y1="126.37617"
       x2="77.402641"
       y2="126.37617"
       gradientUnits="userSpaceOnUse" />
  </defs>
  <g
     inkscape:label="Calque 1"
     inkscape:groupmode="layer"
     id="layer1">
    <path
       d="m 128.56735,163.235 a 44.678314,52.642349 0 0 0 9.02839,-4.50825 44.678314,52.642349 0 0 0 22.3392,-45.58947 H 115.25653 70.578121 a 44.678314,52.642349 0 0 0 22.339205,45.58947 44.678314,52.642349 0 0 0 10.007144,4.8643 68.965622,41.293114 0 0 0 11.32747,0.62993 68.965622,41.293114 0 0 0 14.31541,-0.98598 z"
       style="mix-blend-mode:darken;fill:url(#radialGradient19);stroke:#000000;stroke-width:2.27292;stroke-linejoin:bevel;stroke-miterlimit:3.4;opacity:0.99999999;filter:url(#filter19)"
       id="path15" />
    <path
       d="M 114.25194,80.865114 A 68.960384,41.678301 0 0 0 45.291363,122.54339 68.960384,41.678301 0 0 0 102.92533,163.58585 44.67492,53.133403 0 0 1 92.918946,158.67618 44.67492,53.133403 0 0 1 70.581438,112.66144 h 44.675012 44.67502 a 44.67492,53.133403 0 0 1 -22.3375,46.01474 44.67492,53.133403 0 0 1 -9.02771,4.5503 68.960384,41.678301 0 0 0 54.64574,-40.68309 68.960384,41.678301 0 0 0 -68.96006,-41.678276 z"
       style="fill:none;fill-opacity:0.997403;stroke:#000000;stroke-width:2.28341;stroke-linejoin:bevel;stroke-miterlimit:3.4"
       id="path13" />
    <path
       id="path2"
       style="fill:#28170b;stroke:#000000;stroke-width:1.846;stroke-linejoin:bevel;stroke-miterlimit:3.4;stroke-opacity:1;stroke-dasharray:none"
       d="m 156.15344,115.4653 a 44.782261,9.1283507 0 0 0 -41.03045,-5.47446 44.782261,9.1283507 0 0 0 -40.857327,5.43158 44.782261,9.1283507 0 0 0 40.991327,5.49254 44.782261,9.1283507 0 0 0 40.89645,-5.44966 z" />
    <path
       id="path7"
       style="fill:url(#radialGradient6);stroke:#000000;stroke-width:1.845;stroke-linejoin:bevel;stroke-miterlimit:3.4;stroke-opacity:1;stroke-dasharray:none"
       d="m 115.25657,102.65738 a 44.746685,9.127987 0 0 0 -44.746943,9.12786 44.746685,9.127987 0 0 0 3.788176,3.63555 44.746685,9.127987 0 0 1 40.824867,-5.43136 44.746685,9.127987 0 0 1 40.99785,5.47423 44.746685,9.127987 0 0 0 3.88247,-3.67842 44.746685,9.127987 0 0 0 -44.74642,-9.12786 z" />
    <text
       xml:space="preserve"
       style="font-style:normal;font-variant:normal;font-weight:normal;font-stretch:normal;font-size:32.1411px;font-family:Legrand;-inkscape-font-specification:'Legrand, Normal';font-variant-ligatures:normal;font-variant-caps:normal;font-variant-numeric:normal;font-variant-east-asian:normal;white-space:pre;inline-size:10.5941;fill:none;fill-opacity:0.997403;stroke:#000000;stroke-width:0.836999;stroke-linejoin:bevel;stroke-miterlimit:3.4;stroke-opacity:1"
       x="100.09594"
       y="72.880074"
       id="text14" />
    <path
       style="fill:none;fill-opacity:0.997403;stroke:none;stroke-width:1.12286;stroke-linejoin:bevel;stroke-miterlimit:3.4;stroke-opacity:1"
       d="m 85.512568,131.10797 c 28.007292,4.91482 30.662382,4.86715 53.946412,1.29158"
       id="path16"
       sodipodi:nodetypes="cc" />
    <text
       xml:space="preserve"
       style="font-size:14.1111px;font-family:Legrand;-inkscape-font-specification:'Legrand, Normal';text-align:center;text-anchor:middle;fill:none;fill-opacity:0.997403;stroke:none;stroke-width:0.836999;stroke-linejoin:bevel;stroke-miterlimit:3.4"
       x="85.848709"
       y="35.800739"
       id="text6"><tspan
         sodipodi:role="line"
         style="stroke-width:0.837"
         x="85.848709"
         y="35.800739"
         id="tspan7">LE BISTRO</tspan></text>
    <path
       d="m 91.181032,133.24276 c 0.0286,0.78551 -0.158612,1.36821 -0.57487,1.7078 -0.09124,0.12051 -0.232597,0.16732 -0.425367,0.13884 -1.69821,-0.25093 -4.980942,-0.57946 -4.980942,-0.57946 -0.0676,-0.005 -0.117344,-0.0642 -0.148875,-0.17695 -0.02216,-0.12571 -0.02426,-0.23499 -0.0065,-0.32861 0.110524,-0.31754 0.342863,-0.926 0.342863,-0.926 0.137683,-0.35051 0.211429,-0.66254 0.218161,-0.94551 0.144776,-4.02448 0.458997,-6.18915 0.433852,-7.79225 -0.04709,-0.16634 -0.09011,-0.32785 -0.129049,-0.48464 -0.0673,-0.1805 -0.163644,-0.31404 -0.288235,-0.39851 -0.01709,-0.0455 -0.02427,-0.0906 -0.02151,-0.13551 0.0096,-0.15686 0.08873,-0.23271 0.238558,-0.22487 1.073427,0.0562 3.236585,0.23972 3.236585,0.23972 0.04035,0.004 0.07851,0.042 0.114365,0.1148 0.07469,0.0995 0.105903,0.24097 0.09295,0.4226 0.02363,-0.50798 -0.0013,-0.16463 -0.04775,0.43829 -0.122048,0.13404 -0.260179,0.14151 -0.413267,0.0252 -0.11644,-0.20304 -0.354918,-0.26515 -0.715102,-0.18589 -0.234504,0.15765 -0.40163,0.56052 -0.508407,1.18889 -0.158935,0.97343 -0.274734,1.77496 -0.345381,2.53368 -0.144667,1.55367 -0.08796,2.91862 0.183379,4.17968 0.282717,0.86427 0.674765,1.38856 1.155823,1.51916 0.261746,0.0362 0.493557,-0.0531 0.700716,-0.26154 0.258641,-0.26339 0.396383,-0.6673 0.41911,-1.19842 0.01313,-0.30693 -0.01804,-0.71597 -0.0891,-1.21866 -0.0699,-0.1942 -0.207541,-0.57793 -0.207541,-0.57793 -0.117617,-0.22164 -0.267365,-0.34017 -0.450087,-0.35724 -0.06049,-0.009 -0.156249,0.0373 -0.285997,0.14117 -0.129117,0.0929 -0.223371,0.1355 -0.283877,0.1267 -0.07046,-0.0103 -0.127743,-0.0636 -0.171657,-0.15965 0.02487,-0.0639 0.04056,-0.13998 0.04716,-0.22826 0.0074,-0.0994 -9.75e-4,-0.25631 -0.02446,-0.46932 -0.0134,-0.2112 -0.016,-0.35975 -0.0086,-0.446 0.02403,-0.28043 0.170454,-0.43474 0.438049,-0.4616 0.113739,-0.0163 0.221134,-0.0169 0.322083,-0.002 0.363696,0.054 0.76665,0.41081 1.216965,1.08578 0.477725,1.22144 0.797586,2.4421 0.966014,3.69645 0,0 -1.7e-5,0 -1.7e-5,0 z m 7.03757,1.61654 c -0.0131,0.0785 -0.01701,0.20543 -0.01125,0.38334 0.01479,0.23931 0.02184,0.39778 0.02021,0.4709 -0.01007,0.45073 -0.144822,0.6699 -0.40895,0.62634 -0.812749,-0.12171 -2.750148,-0.45587 -5.708681,-0.93146 -0.174532,-0.0281 -0.26202,-0.10266 -0.262064,-0.22303 -3.9e-5,-0.1064 0.07702,-0.27416 0.233483,-0.49354 0.157234,-0.23326 0.246979,-0.37821 0.269358,-0.45111 0.20128,-0.9135 0.339631,-1.96898 0.417484,-3.14706 7.02e-4,-0.0106 0.03312,-0.93108 0.139081,-2.79738 0.04415,-0.77075 0.06934,-1.29742 0.07567,-1.63109 0.01965,-0.61028 0.0069,-1.16342 -0.03877,-1.65624 0.02071,-0.1393 -0.05344,-0.32204 -0.22257,-0.546 -0.158102,-0.23443 -0.234569,-0.39256 -0.228986,-0.47548 0.0072,-0.10658 0.110112,-0.19011 0.309046,-0.25076 1.6437,0.1949 4.979401,0.61968 4.979401,0.61968 0.21635,0.0273 0.363241,0.44258 0.439309,1.25476 0.007,0.0508 0.04153,0.26565 0.102178,0.63312 0.03612,0.26249 0.04875,0.48207 0.03781,0.65865 -0.0055,0.0884 -0.01572,0.1692 -0.03077,0.24274 -0.007,0.11296 -0.0576,0.16747 -0.151715,0.16423 -0.09404,-0.004 -0.174699,-0.0546 -0.241605,-0.15383 -0.217951,-0.36399 -0.434335,-0.71974 -0.651808,-1.06951 -0.27608,-0.40913 -0.572593,-0.63393 -0.891776,-0.67991 -0.555848,-0.0801 -1.042631,0.0882 -1.466155,0.48459 -0.362212,0.41721 -0.568856,0.93125 -0.61746,1.54155 -0.03212,0.40339 0.01612,0.77551 0.145979,1.12224 0.07543,0.10645 0.15465,0.16773 0.237349,0.18384 0.103307,0.0201 0.218753,-0.0434 0.345615,-0.19255 0.104103,-0.12478 0.312174,-0.37767 0.312174,-0.37767 0.09326,-0.12325 0.294987,-0.22712 0.605256,-0.31341 0.320947,-0.0845 0.584059,-0.10985 0.791527,-0.0723 0.113946,0.0206 0.184791,0.0577 0.212601,0.11132 0.423895,0.85456 0.640395,1.7337 0.64839,2.60379 -0.08881,0.0618 -0.169981,0.0849 -0.243247,0.0699 -0.09411,-0.0193 -0.214265,-0.13502 -0.358892,-0.34753 -0.14485,-0.21291 -0.25744,-0.3394 -0.339485,-0.37914 -0.171154,-0.12696 -0.370862,-0.2134 -0.599906,-0.25975 -0.364224,-0.0737 -0.694062,-0.0309 -0.990217,0.12455 -0.500047,0.36256 -0.786818,0.98303 -0.841464,1.866 -0.024,0.38787 -0.0021,0.83689 0.06908,1.35656 0.266523,0.88296 0.721874,1.40782 1.3506,1.5348 0.45067,0.14235 0.79592,-1e-4 1.044678,-0.40219 0.03662,-0.13089 0.05774,-0.26342 0.06333,-0.39814 0.01442,-0.34759 -0.06743,-0.63089 -0.247344,-0.85669 -0.03873,-0.0748 -0.176719,-0.18042 -0.413475,-0.31762 -0.184792,-0.11559 -0.273956,-0.2287 -0.267705,-0.33895 0.0038,-0.0662 0.02916,-0.13904 0.07624,-0.21847 0.01047,0.002 0.03239,-0.0101 0.06578,-0.0366 0.04386,-0.0244 0.08152,-0.0333 0.112976,-0.0268 0.135792,0.028 0.362531,0.0688 0.677805,0.12288 0.225903,0.0465 0.67828,0.13918 0.67828,0.13918 0.240858,0.0714 0.455143,0.14817 0.642624,0.23031 0.121861,0.11293 0.185327,0.22462 0.19027,0.33551 -0.07467,1.03491 -0.08955,1.76276 -0.05928,2.16354 0,0 -1.1e-5,-5e-5 -1.1e-5,-5e-5 z m 12.028318,1.11549 c -0.0667,0.43441 -0.28384,0.83627 -0.65137,1.22338 -0.35915,0.39037 -0.73765,0.59076 -1.14602,0.55669 -1.76493,-0.14726 -5.29283,-0.58474 -5.29283,-0.58474 -0.0535,-0.007 -0.10522,-0.07 -0.15572,-0.18671 -0.0503,-0.1161 -0.081,-0.1804 -0.0912,-0.1936 -0.006,-0.16827 0.0795,-0.34374 0.25668,-0.52291 0.18802,-0.17771 0.29488,-0.32719 0.32064,-0.45492 0.10478,-0.56483 0.16011,-1.20441 0.16809,-1.96195 0.004,-0.65317 0.009,-1.32269 0.0165,-2.02593 0.0102,-0.25256 0.0304,-0.61165 0.0604,-1.0974 0.0323,-0.54612 0.0549,-0.95888 0.0649,-1.20244 0.0536,-1.30988 -0.0348,-2.46492 -0.26611,-3.33555 -0.0187,-0.0434 -0.10672,-0.18618 -0.26248,-0.42424 -0.11756,-0.16496 -0.1729,-0.3151 -0.16621,-0.45096 0.003,-0.0679 0.0166,-0.13454 0.0412,-0.20003 0.0525,-0.007 0.11164,-0.0423 0.17743,-0.1034 1.90106,0.20199 5.71861,0.49988 5.71861,0.49988 0.18786,0.0124 0.33593,0.10646 0.44419,0.28514 0.10889,0.16445 0.12458,0.31001 0.0467,0.43538 -0.14516,0.25135 -0.2223,0.51569 -0.23116,0.79264 -0.009,0.27693 0.0726,0.69371 0.24709,1.24316 0.17494,0.53524 0.26541,0.94745 0.26918,1.24183 0.001,0.39244 -0.0997,0.6838 -0.30476,0.8803 -0.10787,0.11096 -0.32261,0.2386 -0.643,0.3763 -0.32081,0.13786 -0.54657,0.28 -0.67766,0.43021 0.0195,0.0654 0.0544,0.15789 0.10454,0.2757 0.65552,0.52217 1.15696,1.17908 1.50364,1.919 0.3474,0.69539 0.51442,1.38622 0.49446,2.11083 -0.004,0.15883 -0.0191,0.31654 -0.0458,0.47431 0,0 -1e-5,3e-5 -1e-5,3e-5 z m -2.25026,-7.58427 c 0.0412,-0.32383 -0.0271,-0.66205 -0.20451,-1.01014 -0.17201,-0.20358 -0.48704,-0.32477 -0.94733,-0.36923 -0.57189,0.14556 -0.95433,0.40968 -1.1475,0.79532 -0.18199,0.37247 -0.28438,0.86079 -0.30541,1.45017 -0.0143,0.40139 0.008,0.80503 0.0688,1.20874 0.0132,0.0784 0.0397,0.23378 0.0397,0.23378 0.007,0.10179 0.0534,0.1458 0.13872,0.13291 0.0544,-0.0422 0.12621,-0.12022 0.21464,-0.23514 0.14625,-0.19915 0.55962,-0.47654 1.24974,-0.88343 0.5268,-0.30316 0.82317,-0.74492 0.89314,-1.32292 0,0 2e-5,-6e-5 2e-5,-6e-5 z m -0.17177,7.37587 c 0.2692,-0.35828 0.4115,-0.80507 0.42724,-1.37121 0.02,-0.72054 -0.1505,-1.39098 -0.50723,-1.99389 -0.19452,-0.32806 -0.46927,-0.51896 -0.83033,-0.56628 -0.13782,-0.0181 -0.2708,-0.0118 -0.39948,0.0183 -0.63223,0.15241 -1.01657,0.64395 -1.1505,1.41651 -0.0405,0.24319 -0.0644,0.46786 -0.0717,0.67718 -0.035,1.00434 0.27408,1.70604 0.92619,2.13338 0.1482,0.0707 0.30774,0.11589 0.47912,0.13554 0.48161,0.0552 0.85789,-0.10165 1.12671,-0.44968 0,0 -4e-5,1e-4 -4e-5,1e-4 z m 6.53382,-9.6825 c -0.10189,0.24557 -0.30413,0.74359 -0.30413,0.74359 -0.12338,0.30826 -0.19809,0.5824 -0.22434,0.8195 -0.19655,1.69104 -0.29457,3.60047 -0.31464,5.34487 -0.0166,1.43907 0.0196,2.59859 0.082,3.90949 0.0179,0.10239 0.10846,0.25213 0.27128,0.45616 0.16307,0.19334 0.24226,0.34222 0.23827,0.44198 -0.003,0.0776 -0.0486,0.15011 -0.13642,0.21718 -0.93551,-0.0151 -2.81205,-0.0958 -2.81205,-0.0958 -0.0721,-0.0734 -0.1063,-0.15565 -0.10289,-0.24561 0.003,-0.0787 0.0772,-0.20338 0.22228,-0.36794 0.15612,-0.17473 0.24103,-0.31065 0.25525,-0.41327 0.28903,-1.94124 0.41621,-3.3339 0.44032,-4.99199 0.0208,-1.43004 -0.0397,-2.95463 -0.17302,-4.2858 -0.0676,-0.65604 -0.2301,-1.14091 -0.49192,-1.4592 -0.0299,-0.045 -0.0438,-0.0965 -0.0418,-0.15443 0.009,-0.24543 0.10225,-0.36197 0.2798,-0.35411 0.87822,0.0389 2.635,0.0849 2.635,0.0849 0.20926,0.004 0.26786,0.11941 0.17696,0.35038 0,0 -2e-5,3e-5 -2e-5,3e-5 z m 7.18993,9.5788 c -0.19593,1.11714 -0.68819,1.90041 -1.41505,2.16781 -0.58428,0.0579 -2.21696,0.17997 -4.45959,0.19436 -0.36811,-0.0656 -0.59513,-0.21361 -0.68236,-0.42929 -0.0158,-0.13988 -0.0213,-0.27633 -0.0165,-0.41023 0.01,-0.26967 0.0635,-0.61509 0.15944,-1.04284 0.1187,-0.49475 0.18276,-0.84432 0.19691,-1.05505 0.0236,-0.14912 0.0524,-0.30485 0.0864,-0.46844 0.0341,-0.17402 0.12526,-0.29375 0.27401,-0.35635 0.31209,-0.0631 0.88369,-0.0819 1.74181,-0.0816 0.14689,0.0491 0.19344,0.1689 0.13872,0.35559 -0.14861,0.11689 -0.29781,0.24241 -0.44714,0.37565 -0.1493,0.12331 -0.23057,0.26853 -0.24397,0.43561 -0.0226,0.0887 -0.0347,0.17183 -0.0362,0.24973 -0.004,0.22462 0.10064,0.49664 0.31322,0.8238 0.21562,0.21983 0.53341,0.32637 0.95505,0.31128 0.13697,-0.005 0.27424,-0.025 0.41198,-0.0604 0.2865,-0.10064 0.53386,-0.27975 0.73908,-0.53243 0.20545,-0.25299 0.32627,-0.5205 0.36232,-0.80615 0.0118,-0.10835 0.0191,-0.22194 0.0207,-0.34127 0.0129,-0.96931 -0.33773,-1.75677 -1.03757,-2.25826 -0.34678,-0.24653 -0.7739,-0.36629 -1.29075,-0.35493 -0.53836,0.0118 -1.02506,0.15113 -1.47181,0.41229 -0.26338,0.0351 -0.44822,-0.0954 -0.55066,-0.40014 -0.0506,-0.2693 -0.0746,-0.55888 -0.0718,-0.87072 0.004,-0.40032 0.0722,-1.01759 0.209,-1.88779 0.13684,-0.87076 0.21233,-1.57626 0.22198,-2.04756 0.003,-0.16381 0.001,-0.32767 -0.005,-0.49118 0.0128,-0.11886 -0.0298,-0.28984 -0.12868,-0.51176 -0.0988,-0.22184 -0.14637,-0.38301 -0.14331,-0.48476 0.004,-0.13062 -0.003,-0.0398 0.13626,-0.14009 2.11301,0.0153 3.77355,-0.21138 4.82658,-0.19499 0.20643,0.0773 0.33121,0.27035 0.37585,0.58606 0.0451,0.30127 0.0858,0.60622 0.12197,0.91142 0.0459,0.95374 0.0293,1.63657 -0.0584,2.06895 -0.15881,0.26502 -0.3903,0.40586 -0.69347,0.42306 -0.0831,0.005 -0.24637,4.8e-4 -0.48631,-0.0162 -0.23017,-0.0308 -0.40767,-0.0371 -0.5337,-0.0176 -0.0731,-0.0251 -0.13023,-0.0794 -0.17129,-0.16328 -0.0409,-0.0981 -0.0452,-0.19108 -0.013,-0.27855 0.10645,-0.16233 0.21284,-0.33279 0.31965,-0.51186 0.10679,-0.17898 0.15111,-0.37822 0.13336,-0.59791 0.0247,-0.26548 -0.15892,-0.55273 -0.55022,-0.86622 -0.15551,-0.0692 -0.31692,-0.1018 -0.48434,-0.0978 -0.37676,0.009 -0.67322,0.18426 -0.889,0.52949 -0.2913,0.47975 -0.44005,0.96313 -0.44594,1.44208 -0.002,0.20322 0.0216,0.38973 0.0724,0.55986 0.25685,0.52301 0.67377,0.94763 1.24875,1.27447 0.48144,0.2771 0.9614,0.53305 1.44273,0.77014 1.26127,0.83284 1.89524,1.98756 1.87496,3.32219 -0.003,0.18749 -0.0218,0.37427 -0.0569,0.5619 0,0 -1.5e-4,-1.7e-4 -1.5e-4,-1.7e-4 z m 7.96353,-6.82228 c -0.12565,0.17427 -0.23429,0.21136 -0.32526,0.11022 -0.16156,-0.17957 -0.35718,-0.60906 -0.58241,-1.31562 -0.18651,-0.59305 -0.42512,-0.98485 -0.72142,-1.16919 -0.29992,0.007 -0.51923,0.11283 -0.65785,0.32127 -0.13855,0.20826 -0.22608,0.47368 -0.2622,0.79469 -0.0362,0.32199 -0.0712,0.62502 -0.10605,0.91534 -0.10578,3.51159 -0.008,5.60288 0.17731,6.92755 0.13309,0.37809 0.2122,0.60056 0.24094,0.65739 0.11424,0.24769 0.26545,0.43491 0.4542,0.55462 0.0563,0.12963 -0.005,0.26389 -0.18335,0.40114 -0.7314,0.0884 -1.67024,0.24091 -3.10425,0.45763 -0.14112,-0.0716 -0.22016,-0.15512 -0.23704,-0.24977 0.0572,-0.13604 0.20421,-0.35347 0.4409,-0.64812 0.20403,-0.24952 0.32346,-0.45935 0.3592,-0.63258 0.14403,-0.72414 0.21955,-1.50451 0.22871,-2.46031 0.005,-0.51929 -0.0111,-1.19632 -0.047,-2.16848 -0.0352,-1.17089 -0.0529,-2.01142 -0.0589,-2.4626 -0.0376,-0.36653 -0.0849,-0.75304 -0.14133,-1.15564 -0.0565,-0.40312 -0.20218,-0.65808 -0.43926,-0.76471 -0.48814,-0.0275 -0.8518,0.24961 -1.08988,0.84382 -0.10954,0.38144 -0.32591,1.13677 -0.32591,1.13677 -0.13954,0.43402 -0.31872,0.71872 -0.53857,0.86216 -0.17674,-0.0525 -0.26422,-0.2238 -0.26163,-0.51828 7.4e-4,-0.0842 0.007,-0.21138 0.0192,-0.38234 0.0226,-0.17201 0.0344,-0.2944 0.0352,-0.36593 0.0139,-1.21342 0.1008,-2.11617 0.25155,-2.68952 0.066,-0.13073 0.17778,-0.22087 0.33526,-0.27221 1.21006,-0.0461 2.98268,-0.20213 5.38022,-0.52121 0.18545,-0.006 0.36741,-0.0109 0.54236,-0.0161 0.21572,0.0299 0.35646,0.1516 0.42266,0.36787 0.20994,1.01939 0.31295,1.84723 0.30265,2.44967 -0.006,0.35591 -0.042,0.68624 -0.10821,0.99241 0,0 1.1e-4,2e-5 1.1e-4,2e-5 z m 7.88266,6.01031 c 0.0631,0.15071 0.0237,0.27327 -0.11764,0.36648 -0.0904,0.0175 -0.46537,0.10069 -1.13384,0.25436 -0.45859,0.10055 -0.8308,0.1468 -1.1183,0.13747 -0.0674,-0.0525 -0.11403,-0.13071 -0.13993,-0.23392 -0.0316,-0.14552 -0.13829,-0.865 -0.31691,-2.04146 -0.12296,-0.81687 -0.31199,-1.45088 -0.56118,-1.88589 -0.11701,-0.13834 -0.26606,-0.2057 -0.44747,-0.2005 -0.48809,0.14669 -0.85379,0.58244 -1.10283,1.28258 -0.0797,0.38724 -0.12392,0.74973 -0.13318,1.09217 -0.0168,0.6228 0.0886,1.0932 0.31749,1.42522 0.0282,0.0577 0.15433,0.16317 0.37857,0.32173 0.16518,0.12731 0.22936,0.28114 0.19271,0.46202 -0.0745,0.12313 -0.20203,0.20253 -0.38308,0.23705 -0.23094,0.0335 -0.37208,0.0648 -0.4233,0.0968 -0.23005,-4.4e-4 -0.55699,0.0502 -0.98225,0.15015 -0.46499,0.0958 -0.79968,0.15076 -1.00136,0.16434 -0.19182,0.0122 -0.28526,-0.0482 -0.28045,-0.17802 0.002,-0.0433 0.0186,-0.0944 0.051,-0.15332 0.2989,-0.46732 0.48968,-1.03423 0.56803,-1.6978 0.0496,-0.33586 0.0748,-0.92555 0.0718,-1.8142 -0.002,-0.37882 0.0134,-1.02414 0.0492,-1.98049 0.0238,-0.88459 0.0359,-1.64012 0.0355,-2.16298 -0.0163,-0.81951 -0.0623,-1.59221 -0.1382,-2.28757 0.0133,-0.14551 -0.0491,-0.30018 -0.18885,-0.46535 -0.12901,-0.17956 -0.19217,-0.31545 -0.18963,-0.40665 0.003,-0.10428 0.0576,-0.22066 0.16437,-0.34844 0.0525,-0.0317 0.15121,-0.0685 0.2964,-0.11064 0.27839,-0.0196 0.5921,-0.0493 0.94247,-0.0908 0.32057,-0.038 0.80703,-0.10294 1.466,-0.19582 0.65998,-0.10577 1.14811,-0.17866 1.4777,-0.21983 0.65512,-0.0818 1.2209,-0.12309 1.69787,-0.12466 0.0688,0.062 0.10157,0.13427 0.0985,0.21719 -0.002,0.0592 -0.0362,0.15799 -0.10209,0.29721 -0.0552,0.12593 -0.084,0.22501 -0.0865,0.29667 -0.0426,0.3503 0.0233,0.80168 0.19749,1.3405 0.17257,0.58588 0.2545,0.99953 0.24613,1.25545 -0.0114,0.34885 -0.12286,0.68458 -0.33384,1.01079 -0.2106,0.31469 -0.47042,0.60477 -0.7793,0.87105 -0.29878,0.25314 -0.59124,0.49341 -0.87902,0.72152 -0.0133,0.13709 0.0391,0.22611 0.15841,0.26752 0.17891,0.0622 0.27792,0.10173 0.29744,0.11963 0.33763,0.36607 0.68546,1.09711 1.02327,2.14874 0.31008,0.99389 0.68246,1.69065 1.10874,2.06187 0,0 6e-5,-8e-5 6e-5,-8e-5 z m -2.53939,-8.59903 c -0.17274,-0.33842 -0.45858,-0.48173 -0.85776,-0.42345 -0.16381,0.0239 -0.31851,0.0836 -0.46406,0.18001 -0.71276,0.61815 -1.08572,1.77319 -1.11719,3.35737 -7.7e-4,0.0388 -0.003,0.40158 -0.006,1.07494 -0.004,0.19621 0.0602,0.27918 0.19243,0.25219 0.34927,-0.3864 0.71282,-0.78851 1.07323,-1.18415 0.41496,-0.46692 0.75038,-0.89306 1.00266,-1.27203 0.21245,-0.38402 0.32471,-0.78006 0.33645,-1.19201 0.009,-0.303 -0.0444,-0.56702 -0.15972,-0.79281 0,0 10e-6,-6e-5 10e-6,-6e-5 z m 9.95323,4.80938 c 0.0263,0.24314 0.033,0.48269 0.0203,0.71874 -0.0494,0.92276 -0.37328,1.59897 -0.96975,2.04987 -0.2251,0.22152 -0.54802,0.36654 -0.96947,0.4382 -0.33243,0.0377 -0.67014,0.0831 -1.01348,0.13755 -0.68496,0.0983 -1.36994,0.2045 -2.04814,0.3156 -0.81506,0.0702 -1.32285,-0.21537 -1.52413,-0.85355 -0.0961,-0.30314 -0.13617,-0.66285 -0.11988,-1.08062 0.013,-0.33237 0.0697,-0.7788 0.17059,-1.34436 0.0865,-0.46273 0.30148,-1.39675 0.64483,-2.81319 0.28541,-1.18859 0.47592,-2.17281 0.56704,-2.92763 0.078,-0.676 -7e-4,-1.18401 -0.23786,-1.52821 -0.0116,-0.20239 0.064,-0.32434 0.22683,-0.3661 0.26298,-0.0311 0.78923,-0.0997 1.57506,-0.19611 0.6445,-0.0809 1.15694,-0.13247 1.53687,-0.15901 0.551,-0.0535 1.05451,-0.0713 1.51016,-0.0549 0.0958,0.0674 0.14083,0.15497 0.13524,0.26271 -0.004,0.0756 -0.0446,0.19153 -0.1222,0.3485 -0.0676,0.15612 -0.10332,0.27214 -0.10722,0.34767 -0.0418,0.99191 0.033,2.1379 0.22087,3.43509 0.16928,1.0838 0.33779,2.17594 0.50432,3.26988 0,-4e-5 0,-7e-5 0,-1e-4 z m -1.94505,0.13167 c 0.0989,-0.61392 0.16367,-1.22241 0.19397,-1.8269 0.0736,-1.46806 -0.0609,-2.79292 -0.40944,-3.98901 -0.13614,-0.4609 -0.40988,-0.67163 -0.82082,-0.62326 -0.11029,0.013 -0.21691,0.0531 -0.31981,0.12066 -0.39647,0.36739 -0.69295,0.86623 -0.89016,1.49314 -0.1166,0.38243 -0.22581,0.95165 -0.32781,1.70366 -0.12804,0.89756 -0.20148,1.57738 -0.22147,2.0441 -0.0557,1.30173 0.18036,2.23279 0.70236,2.82006 0.28608,0.17691 0.62731,0.18474 1.02564,0.0255 0.29038,-0.1531 0.52734,-0.41419 0.71137,-0.78432 0.0763,-0.16153 0.19465,-0.48938 0.35619,-0.98352 0,0 -2e-5,-6e-5 -2e-5,-6e-5 z"
       id="text8"
       style="font-size:53.3333px;font-family:Legrand;-inkscape-font-specification:'Legrand, Normal';text-align:center;text-anchor:middle;white-space:pre;fill-opacity:0.997403;stroke-width:0.836999;stroke-linejoin:bevel;stroke-miterlimit:3.4"
       aria-label="LE BISTRO"
       inkscape:path-effect="#path-effect9"
       inkscape:original-d="m 93.287828,134.44959 c 0.04703,0.60207 -0.1223,1.04422 -0.508,1.32644 -0.08467,0.0941 -0.21637,0.14111 -0.39511,0.14111 h -4.727221 c -0.06585,0 -0.11289,-0.0376 -0.14111,-0.11289 -0.01881,-0.0847 -0.01881,-0.15992 0,-0.22577 l 0.338667,-0.67734 c 0.131702,-0.26341 0.197553,-0.50329 0.197553,-0.71966 0.04704,-3.08563 3e-6,-5.31988 -0.14111,-6.70277 -0.05645,-0.14111 -0.108188,-0.27752 -0.155223,-0.40923 -0.07526,-0.15051 -0.174036,-0.2587 -0.296333,-0.32455 -0.01881,-0.0376 -0.02822,-0.0752 -0.02822,-0.11289 0,-0.13171 0.07056,-0.19756 0.211667,-0.19756 h 3.033887 c 0.03763,0 0.07526,0.0282 0.112887,0.0847 0.07526,0.0753 0.11289,0.18815 0.11289,0.33867 -0.0094,-0.33867 -0.0141,-0.21637 -0.0141,0.36689 -0.103483,0.12229 -0.230483,0.14109 -0.381,0.0564 -0.122298,-0.15993 -0.348076,-0.19286 -0.677334,-0.0988 -0.206962,0.15052 -0.333962,0.5033 -0.381,1.05834 -0.06585,0.84666 -0.09878,1.59925 -0.09878,2.25777 0,1.37348 0.145815,2.53059 0.437444,3.47133 0.291629,0.63971 0.663221,0.98308 1.114777,1.03011 0.244591,0 0.460961,-0.0894 0.64911,-0.26811 0.235185,-0.22578 0.352777,-0.55033 0.352777,-0.97366 0,-0.24459 -0.04704,-0.56915 -0.14111,-0.97367 -0.07526,-0.15052 -0.150519,-0.30104 -0.225777,-0.45156 -0.122297,-0.16933 -0.268113,-0.24929 -0.437446,-0.23988 -0.05644,0 -0.141106,0.0517 -0.253998,0.15522 -0.112889,0.0941 -0.197555,0.14111 -0.254,0.14111 -0.06585,0 -0.122298,-0.0376 -0.169333,-0.11289 0.01881,-0.0565 0.02822,-0.12232 0.02822,-0.19756 0,-0.0847 -0.01881,-0.21637 -0.05644,-0.39511 -0.02822,-0.17874 -0.04233,-0.30574 -0.04233,-0.381 0,-0.24459 0.122297,-0.3951 0.36689,-0.45155 0.103481,-0.0282 0.202259,-0.0423 0.296334,-0.0423 0.338665,0 0.738479,0.254 1.199443,0.76199 0.526814,0.96897 0.884295,1.92852 1.072444,2.87867 z m 6.350005,0.26811 c -0.0094,0.0659 -0.0094,0.16935 0,0.31044 0.01881,0.18815 0.02822,0.31045 0.02822,0.36689 0,0.34807 -0.117592,0.52211 -0.352777,0.52211 -0.724371,0.009 -2.441222,0.0141 -5.150554,0.0141 -0.159926,0 -0.239889,-0.0423 -0.239889,-0.127 0,-0.0753 0.07055,-0.20226 0.211666,-0.381 0.141111,-0.18815 0.221075,-0.31044 0.23989,-0.36689 0.169333,-0.71496 0.254,-1.57574 0.254,-2.58233 0,-0.009 -0.02352,-0.79962 -0.07056,-2.37067 -0.01881,-0.6397 -0.03763,-1.09125 -0.05644,-1.35466 -0.02822,-0.49859 -0.07996,-0.94074 -0.155223,-1.32645 0.0094,-0.11289 -0.07056,-0.24929 -0.239887,-0.40922 -0.159927,-0.16933 -0.23989,-0.28693 -0.23989,-0.35278 0,-0.0847 0.08937,-0.15993 0.26811,-0.22578 H 98.7065 c 0.197555,0 0.352777,0.29163 0.465666,0.87489 0.0094,0.0376 0.05173,0.18812 0.127,0.45156 0.04704,0.18815 0.07056,0.34807 0.07056,0.47978 0,0.0659 -0.0047,0.12701 -0.0141,0.18344 0,0.0847 -0.04233,0.1317 -0.127,0.14111 -0.08467,0.009 -0.159926,-0.0188 -0.225779,-0.0847 -0.216369,-0.24459 -0.432739,-0.48448 -0.64911,-0.71967 -0.272814,-0.27281 -0.555036,-0.40922 -0.846667,-0.40922 -0.508,0 -0.94074,0.17874 -1.29822,0.53622 -0.301038,0.36689 -0.451557,0.79963 -0.451557,1.29822 0,0.32926 0.07056,0.62559 0.211667,0.889 0.07526,0.0753 0.15052,0.11289 0.225779,0.11289 0.09407,0 0.192852,-0.0706 0.296334,-0.21167 l 0.253997,-0.35277 c 0.07526,-0.11289 0.249298,-0.22578 0.522113,-0.33867 0.282222,-0.11289 0.517407,-0.16933 0.705554,-0.16933 0.103482,0 0.169334,0.0188 0.197556,0.0564 0.43274,0.60207 0.677332,1.26059 0.733777,1.97556 -0.07526,0.0659 -0.145816,0.0988 -0.211667,0.0988 -0.08467,0 -0.197555,-0.0753 -0.338666,-0.22577 -0.141111,-0.15052 -0.249297,-0.23519 -0.324557,-0.254 -0.159925,-0.0753 -0.343368,-0.11289 -0.55033,-0.11289 -0.32926,0 -0.62089,0.0894 -0.87489,0.26811 -0.423333,0.3857 -0.635,0.95485 -0.635,1.70744 0,0.32926 0.04233,0.70085 0.127,1.11478 0.272815,0.67733 0.691445,1.0207 1.25589,1.03011 0.404517,0.0471 0.710257,-0.11286 0.91722,-0.47978 0.02822,-0.11289 0.04233,-0.22578 0.04233,-0.33867 0,-0.29163 -0.08467,-0.5174 -0.254,-0.67733 -0.03763,-0.0565 -0.164627,-0.12232 -0.381,-0.19755 -0.169333,-0.0659 -0.254,-0.14583 -0.254,-0.23989 0,-0.0565 0.01882,-0.12232 0.05645,-0.19756 0.0094,0 0.02821,-0.0141 0.05644,-0.0423 0.03763,-0.0282 0.07055,-0.0423 0.09878,-0.0423 0.122297,0 0.324556,-0.005 0.606777,-0.0141 h 0.606779 c 0.216369,0.0188 0.409221,0.047 0.578554,0.0847 0.112889,0.0753 0.174037,0.15993 0.183444,0.254 -0.01881,0.90311 -0.0094,1.51459 0.02822,1.83444 z m 10.583307,-0.47978 c -0.0471,0.41393 -0.22581,0.79963 -0.53622,1.15711 -0.30104,0.35748 -0.6303,0.53622 -0.98778,0.53622 h -4.65666 c -0.0471,0 -0.0941,-0.0423 -0.14111,-0.127 -0.0471,-0.0847 -0.0753,-0.1317 -0.0847,-0.14111 -0.009,-0.1317 0.0612,-0.28222 0.21167,-0.45155 0.15993,-0.16933 0.2493,-0.31044 0.26811,-0.42333 0.0753,-0.49859 0.10349,-1.08656 0.0847,-1.76389 -0.0188,-0.58326 -0.0376,-1.16182 -0.0564,-1.73567 0,-0.20696 0.005,-0.49859 0.0141,-0.87489 0.009,-0.42333 0.0141,-0.72437 0.0141,-0.90311 0,-0.95015 -0.1223,-1.71214 -0.36689,-2.28599 -0.0188,-0.0282 -0.10347,-0.11757 -0.254,-0.26812 -0.11289,-0.10348 -0.16933,-0.20226 -0.16933,-0.29633 0,-0.047 0.009,-0.094 0.0282,-0.14111 0.047,-0.009 0.0987,-0.0376 0.15522,-0.0847 h 5.16466 c 0.16933,0 0.30574,0.0564 0.40922,0.16934 0.10349,0.10348 0.12229,0.19755 0.0564,0.28222 -0.1223,0.16933 -0.18345,0.34337 -0.18345,0.52211 0,0.17874 0.0847,0.44215 0.254,0.79022 0.16933,0.33867 0.25871,0.60678 0.26812,0.80433 0.009,0.26341 -0.0753,0.47038 -0.254,0.62089 -0.0941,0.0847 -0.28223,0.18815 -0.56445,0.31045 -0.28222,0.12229 -0.47977,0.24459 -0.59266,0.36689 0.0188,0.047 0.0517,0.11285 0.0988,0.19755 0.59267,0.33867 1.04893,0.80904 1.36878,1.41111 0.31985,0.56445 0.47978,1.19004 0.47978,1.87678 0,0.15052 -0.009,0.30104 -0.0282,0.45155 z m -2.159,-5.87022 c 0.0282,-0.21637 -0.0423,-0.43274 -0.21166,-0.64911 -0.15993,-0.12229 -0.44685,-0.18344 -0.86078,-0.18344 -0.508,0.13171 -0.84196,0.33397 -1.00189,0.60678 -0.15052,0.26341 -0.22578,0.60207 -0.22578,1.016 0,0.28222 0.0329,0.56914 0.0988,0.86077 l 0.0423,0.16934 c 0.009,0.0753 0.0517,0.10349 0.12699,0.0847 0.0471,-0.0376 0.10822,-0.10345 0.18345,-0.19755 0.12229,-0.15993 0.48448,-0.40922 1.08655,-0.74789 0.46097,-0.254 0.71497,-0.57385 0.762,-0.95956 z m 0.0282,5.88433 c 0.22577,-0.35748 0.33866,-0.79492 0.33866,-1.31233 0,-0.65852 -0.16463,-1.21356 -0.49389,-1.66511 -0.17874,-0.24459 -0.42803,-0.36689 -0.74788,-0.36689 -0.1223,0 -0.23989,0.0188 -0.35278,0.0564 -0.55504,0.18815 -0.8796,0.62559 -0.97367,1.31233 -0.0282,0.21637 -0.0423,0.41863 -0.0423,0.60678 0,0.90311 0.29163,1.50988 0.87489,1.82033 0.1317,0.047 0.27281,0.0705 0.42333,0.0705 0.42333,0 0.74789,-0.17404 0.97367,-0.52211 z m 5.61621,-7.59177 -0.254,0.47978 c -0.10348,0.19755 -0.16463,0.37159 -0.18344,0.52211 -0.14111,1.06303 -0.21167,2.30011 -0.21167,3.71122 0,1.16652 0.047,2.35656 0.14111,3.57011 0.0188,0.0941 0.10347,0.23048 0.254,0.40922 0.15052,0.16933 0.22578,0.29633 0.22578,0.381 0,0.0659 -0.0376,0.12701 -0.11289,0.18344 h -2.48355 c -0.0659,-0.0565 -0.0988,-0.12232 -0.0988,-0.19755 0,-0.0659 0.0611,-0.17405 0.18344,-0.32456 0.13171,-0.15993 0.20226,-0.28693 0.21167,-0.381 0.19755,-1.79681 0.29633,-3.27377 0.29633,-4.43088 0,-1.08185 -0.0753,-2.04611 -0.22577,-2.89278 -0.0753,-0.41393 -0.23519,-0.71967 -0.47978,-0.91722 -0.0282,-0.0282 -0.0423,-0.0611 -0.0423,-0.0988 0,-0.15993 0.08,-0.23989 0.23988,-0.23989 h 2.37067 c 0.18815,0 0.24459,0.0753 0.16933,0.22578 z m 6.56168,7.30955 c -0.15993,1.09126 -0.56445,1.73096 -1.21356,1.91911 -0.59267,0.0188 -1.91911,0.0282 -3.97933,0.0282 -0.32926,-0.0565 -0.53622,-0.17876 -0.62089,-0.36688 -0.0188,-0.1223 -0.0282,-0.2446 -0.0282,-0.36689 0,-0.24459 0.0376,-0.57385 0.11289,-0.98778 0.0941,-0.47978 0.14581,-0.81845 0.15522,-1.016 0.0188,-0.14111 0.0423,-0.28693 0.0706,-0.43744 0.0282,-0.15993 0.10816,-0.26811 0.23988,-0.32456 0.27282,-0.0565 0.79023,-0.0753 1.55223,-0.0564 0.1317,0.047 0.17403,0.15518 0.127,0.32455 -0.13171,0.10348 -0.26341,0.21637 -0.39512,0.33867 -0.1317,0.11289 -0.20225,0.24929 -0.21166,0.40922 -0.0188,0.0847 -0.0282,0.16463 -0.0282,0.23989 0,0.21637 0.0988,0.48448 0.29633,0.80433 0.19755,0.21637 0.48448,0.32456 0.86078,0.32456 0.12229,0 0.24459,-0.0141 0.36688,-0.0423 0.254,-0.0847 0.47037,-0.24459 0.64912,-0.47977 0.17874,-0.23519 0.28222,-0.48919 0.31044,-0.762 0.009,-0.10349 0.0141,-0.21167 0.0141,-0.32456 0,-0.92193 -0.31515,-1.59456 -0.94544,-2.01789 -0.31045,-0.20696 -0.69615,-0.31044 -1.15711,-0.31044 -0.47978,0 -0.91722,0.10348 -1.31233,0.31044 -0.23519,0.0282 -0.39982,-0.0753 -0.49389,-0.31044 -0.0471,-0.20696 -0.0706,-0.42333 -0.0706,-0.64911 0,-0.29163 0.0564,-0.72437 0.16934,-1.29822 0.11289,-0.57385 0.16933,-1.0113 0.16933,-1.31233 0,-0.10349 -0.005,-0.20697 -0.0141,-0.31045 0.009,-0.0753 -0.0329,-0.18344 -0.127,-0.32455 -0.0941,-0.14111 -0.14112,-0.2446 -0.14112,-0.31045 0,-0.0847 -0.004,-0.0256 0.11865,-0.0915 1.9003,0 3.39031,-0.11546 4.34046,-0.0778 0.18815,0.0565 0.30574,0.18817 0.35278,0.39511 0.0471,0.19755 0.0894,0.39511 0.127,0.59267 0.0565,0.61148 0.0471,1.05833 -0.0282,1.34055 -0.14111,0.16933 -0.34808,0.254 -0.62089,0.254 -0.0753,0 -0.22107,-0.009 -0.43744,-0.0282 -0.20697,-0.0282 -0.36689,-0.0376 -0.47978,-0.0282 -0.0659,-0.0188 -0.11761,-0.0564 -0.15522,-0.11289 -0.0376,-0.0659 -0.0423,-0.12702 -0.0141,-0.18345 0.0941,-0.10348 0.18815,-0.21166 0.28222,-0.32455 0.0941,-0.11289 0.1317,-0.23989 0.11289,-0.381 0.0188,-0.16933 -0.15053,-0.35748 -0.508,-0.56445 -0.14111,-0.047 -0.28693,-0.0705 -0.43745,-0.0705 -0.33867,0 -0.60207,0.10818 -0.79022,0.32455 -0.254,0.30104 -0.381,0.60678 -0.381,0.91722 0,0.13171 0.0235,0.254 0.0706,0.36689 0.23518,0.34807 0.61148,0.64441 1.12889,0.889 0.43274,0.20697 0.86548,0.40923 1.29822,0.60678 1.13829,0.67733 1.70744,1.66041 1.70744,2.94922 0,0.17874 -0.0141,0.35748 -0.0423,0.53622 z m 7.18254,-4.78366 c -0.11289,0.11289 -0.21166,0.12699 -0.29633,0.0423 -0.15052,-0.15052 -0.33396,-0.48448 -0.55033,-1.00189 -0.17875,-0.43274 -0.40453,-0.72437 -0.67734,-0.87488 -0.27281,-0.0188 -0.47037,0.0376 -0.59266,0.16933 -0.1223,0.1317 -0.19756,0.30574 -0.22578,0.52211 -0.0282,0.21637 -0.0564,0.42333 -0.0847,0.62089 -0.0565,2.44592 0.0235,4.35092 0.23989,5.71499 0.13171,0.3763 0.21167,0.59267 0.23989,0.64911 0.11289,0.24459 0.2587,0.43274 0.43744,0.56445 0.0565,0.12229 0.005,0.23048 -0.15522,0.32455 -0.63029,-0.0188 -1.57574,-0.009 -2.83633,0.0282 -0.1317,-0.0753 -0.20696,-0.15522 -0.22578,-0.23989 0.0471,-0.11289 0.17407,-0.29163 0.381,-0.53622 0.17874,-0.20697 0.28222,-0.39041 0.31045,-0.55034 0.11289,-0.66793 0.16933,-1.42522 0.16933,-2.27188 0,-0.45156 -0.0188,-1.04893 -0.0564,-1.79211 -0.0376,-0.8843 -0.0611,-1.47697 -0.0706,-1.778 -0.0376,-0.254 -0.0846,-0.51741 -0.14111,-0.79022 -0.0565,-0.27282 -0.19287,-0.45156 -0.40922,-0.53623 -0.44215,-0.047 -0.7667,0.11763 -0.97367,0.49389 l -0.28222,0.73378 c -0.12229,0.28222 -0.28222,0.46566 -0.47978,0.55033 -0.15993,-0.047 -0.23989,-0.1693 -0.23989,-0.36689 0,-0.0565 0.005,-0.14113 0.0141,-0.254 0.0188,-0.11289 0.0282,-0.19285 0.0282,-0.23989 0,-0.79022 0.0611,-1.37348 0.18344,-1.74977 0.0565,-0.0847 0.15525,-0.14111 0.29634,-0.16933 1.08185,0.0188 2.70462,0 4.86833,-0.0564 0.16933,0.009 0.33396,0.0188 0.49389,0.0282 0.19755,0.0376 0.32926,0.13638 0.39511,0.29634 0.21637,0.74318 0.32455,1.33114 0.32455,1.76388 0,0.254 -0.0282,0.48919 -0.0847,0.70556 z m 7.52121,6.40644 c 0.0659,0.14111 0.0329,0.23988 -0.0988,0.29633 -0.0847,0 -0.44215,0.009 -1.07244,0.0282 -0.43274,0.009 -0.78552,-0.0141 -1.05834,-0.0705 -0.0659,-0.0565 -0.1129,-0.13173 -0.14111,-0.22578 -0.0376,-0.14111 -0.1599,-0.76671 -0.36689,-1.87678 -0.14111,-0.76199 -0.33396,-1.35466 -0.57855,-1.77799 -0.11289,-0.14111 -0.254,-0.22578 -0.42333,-0.254 -0.45156,0.0376 -0.78552,0.34334 -1.00189,0.91722 -0.0659,0.32926 -0.0988,0.64911 -0.0988,0.95955 0,0.56445 0.11289,1.016 0.33867,1.35467 0.0282,0.0565 0.1505,0.17406 0.36689,0.35278 0.15992,0.14111 0.22577,0.28692 0.19755,0.43744 -0.0659,0.0941 -0.18346,0.14111 -0.35278,0.14111 -0.21637,-0.009 -0.34807,-0.005 -0.39511,0.0141 -0.21637,-0.0376 -0.52211,-0.047 -0.91722,-0.0282 -0.43274,0.009 -0.74318,0.005 -0.93133,-0.0141 -0.17874,-0.0188 -0.26811,-0.0847 -0.26811,-0.19755 0,-0.0377 0.0141,-0.08 0.0423,-0.127 0.26341,-0.36689 0.42333,-0.85138 0.47978,-1.45345 0.0376,-0.30103 0.047,-0.84666 0.0282,-1.63688 -0.009,-0.33867 -0.005,-0.8937 0.0141,-1.66511 0.009,-0.71497 0.009,-1.27 0,-1.66511 -0.0282,-0.61149 -0.0846,-1.17123 -0.16933,-1.67923 0.009,-0.10348 -0.0517,-0.22107 -0.18345,-0.35277 -0.12229,-0.14111 -0.18344,-0.2446 -0.18344,-0.31045 0,-0.0753 0.047,-0.15522 0.14111,-0.23989 0.0471,-0.0188 0.13644,-0.0376 0.26811,-0.0564 0.254,0.009 0.54093,0.0141 0.86078,0.0141 0.29163,0 0.73848,-0.005 1.34055,-0.0141 0.60207,-0.0188 1.05363,-0.0282 1.35467,-0.0282 0.60207,0 1.12418,0.0235 1.56633,0.0705 0.0659,0.0565 0.0988,0.11762 0.0988,0.18345 0,0.047 -0.0282,0.12226 -0.0847,0.22577 -0.047,0.0941 -0.0705,0.16934 -0.0705,0.22578 -0.0282,0.27281 0.0471,0.635 0.22577,1.08656 0.17875,0.48918 0.26812,0.83725 0.26812,1.04422 0,0.28222 -0.0941,0.54092 -0.28223,0.77611 -0.18815,0.22578 -0.42333,0.42334 -0.70555,0.59267 -0.27281,0.15992 -0.54092,0.31044 -0.80433,0.45155 -0.009,0.11289 0.0423,0.19755 0.15522,0.254 0.16933,0.0847 0.26341,0.13641 0.28222,0.15522 0.32926,0.3763 0.67263,1.06774 1.03011,2.07433 0.32926,0.95015 0.70556,1.62278 1.12889,2.01789 z m -2.65289,-7.69055 c -0.16933,-0.28222 -0.43744,-0.42333 -0.80433,-0.42333 -0.15052,0 -0.29163,0.0282 -0.42333,0.0847 -0.63971,0.38571 -0.95956,1.19004 -0.95956,2.413 0,0.0282 0.005,0.31513 0.0141,0.86078 0,0.15993 0.0611,0.23989 0.18345,0.23989 0.31985,-0.26341 0.6444,-0.52682 0.97366,-0.79023 0.3763,-0.31044 0.67734,-0.59736 0.90311,-0.86077 0.18815,-0.27281 0.28222,-0.56915 0.28222,-0.889 0,-0.23519 -0.0564,-0.44685 -0.16933,-0.635 z m 9.60966,5.40455 c 0.0377,0.21637 0.0565,0.42804 0.0565,0.635 0,0.80903 -0.27752,1.37818 -0.83256,1.70744 -0.20696,0.16933 -0.5127,0.2587 -0.91722,0.26811 -0.31985,-0.009 -0.64441,-0.0141 -0.97366,-0.0141 -0.65852,-0.009 -1.31234,-0.0188 -1.96145,-0.0282 -0.78081,-0.0659 -1.2794,-0.39513 -1.49577,-0.98778 -0.10349,-0.28222 -0.15523,-0.60677 -0.15523,-0.97366 0,-0.29163 0.0376,-0.67734 0.11289,-1.15711 0.0659,-0.39511 0.2352,-1.17123 0.508,-2.32834 0.22578,-0.96896 0.36689,-1.76388 0.42334,-2.38477 0.047,-0.55504 -0.0471,-0.98778 -0.28223,-1.29822 -0.0188,-0.16933 0.047,-0.26341 0.19756,-0.28223 0.24459,0 0.73378,-0.005 1.46755,-0.0141 0.60207,-0.009 1.08185,-0.009 1.43934,0 0.51741,0 0.99248,0.0235 1.42522,0.0706 0.0941,0.0659 0.14111,0.14583 0.14111,0.23989 0,0.0659 -0.0329,0.16464 -0.0988,0.29633 -0.0565,0.1317 -0.0847,0.23048 -0.0847,0.29633 0.009,0.86548 0.1364,1.87678 0.381,3.03389 0.21637,0.96896 0.43274,1.94263 0.64911,2.921 z m -1.86266,-0.0847 c 0.0659,-0.52681 0.0988,-1.05363 0.0988,-1.58044 0,-1.27941 -0.19285,-2.45533 -0.57856,-3.52777 -0.15052,-0.41393 -0.41863,-0.62089 -0.80433,-0.62089 -0.10348,0 -0.20226,0.0235 -0.29633,0.0706 -0.35749,0.27281 -0.61619,0.66322 -0.77612,1.17122 -0.0941,0.31045 -0.17403,0.78082 -0.23988,1.41111 -0.0847,0.75259 -0.127,1.33115 -0.127,1.73567 0,1.12889 0.26341,1.98966 0.79022,2.58233 0.28222,0.19755 0.61148,0.254 0.98777,0.16933 0.27282,-0.0941 0.48919,-0.29163 0.64912,-0.59266 0.0659,-0.13171 0.16464,-0.40452 0.29633,-0.81845 z"
       transform="matrix(0.99665179,0,0,0.96175995,0.29274002,5.1985549)"
       sodipodi:nodetypes="scssccsccccsssccccccscccsccccscscscscssccscssccsccccscsccscsccscscscccsccsscscscccsccsccsccccccscsscccccccsccsccsccscccscccsssscccscccccsscscsccscscccccsccsccsccsccsssscccccsccccccccscscscscsccssscsscccccsccccsccscscccscccsccsscccccccccsccsccccscscccccscccccccccccscccccccscccccccsccscscscccscccsccccsscsccccssscscccccsccccccccscccccsscscccscccss" />
    <path
       style="font-size:14.1111px;font-family:Legrand;-inkscape-font-specification:'Legrand, Normal';text-align:center;text-anchor:middle;fill-opacity:0.997403;stroke-width:0.837;stroke-linejoin:bevel;stroke-miterlimit:3.4"
       d="m 104.27552,156.05788 c 0.0734,0.17756 0.0457,0.28829 -0.0823,0.33178 -0.0726,-0.0127 -0.45166,-0.0687 -1.0669,-0.15289 -0.43031,-0.0638 -0.78406,-0.15011 -1.05916,-0.2603 -0.0691,-0.0765 -0.12062,-0.17156 -0.15453,-0.28542 -0.0474,-0.17468 -0.20508,-0.91268 -0.48295,-2.23533 -0.18908,-0.90447 -0.42041,-1.61691 -0.69436,-2.13697 -0.12293,-0.17721 -0.27091,-0.29206 -0.4438,-0.34423 -0.453715,-0.009 -0.771003,0.30983 -0.949978,0.94591 -0.04397,0.37106 -0.05521,0.73438 -0.03398,1.09033 0.0386,0.64718 0.182885,1.17658 0.431758,1.59299 0.03225,0.0687 0.162252,0.21765 0.390678,0.452 0.16927,0.18341 0.24457,0.36084 0.22628,0.53038 -0.0597,0.0994 -0.1738,0.13715 -0.34287,0.11484 -0.216408,-0.0388 -0.34809,-0.0502 -0.393548,-0.0342 -0.217688,-0.0694 -0.5256,-0.11683 -0.918192,-0.13425 -0.433474,-0.0325 -0.740828,-0.0593 -0.932066,-0.0942 -0.18014,-0.0336 -0.274455,-0.11306 -0.282848,-0.24127 -0.0028,-0.0427 0.0082,-0.0899 0.03295,-0.14172 0.236476,-0.40106 0.361644,-0.94019 0.374619,-1.62191 0.01593,-0.33976 -0.01413,-0.96085 -0.0905,-1.86115 -0.03406,-0.38569 -0.06972,-1.01769 -0.106598,-1.89448 -0.04236,-0.81358 -0.08257,-1.44498 -0.120852,-1.89531 -0.07318,-0.6972 -0.171556,-1.33618 -0.295555,-1.91613 0.0021,-0.11746 -0.0692,-0.25301 -0.214186,-0.405 -0.13601,-0.16252 -0.206607,-0.28043 -0.211495,-0.35518 -0.0056,-0.0854 0.03686,-0.17582 0.127402,-0.27075 0.04688,-0.0207 0.137699,-0.0409 0.271682,-0.0596 0.261232,0.0156 0.557986,0.0306 0.885886,0.045 0.294682,0.013 0.763109,0.0309 1.375226,0.065 0.606152,0.0228 1.088862,0.0557 1.387152,0.0835 0.61527,0.0573 1.15497,0.14135 1.60865,0.24487 0.0707,0.0734 0.10793,0.14864 0.11172,0.22569 0.003,0.055 -0.0218,0.13992 -0.0736,0.25463 -0.0427,0.10474 -0.0624,0.19003 -0.0591,0.25603 -0.013,0.31604 0.0851,0.74749 0.29311,1.29824 0.21011,0.59452 0.32057,1.01525 0.33227,1.25756 0.016,0.33097 -0.0649,0.62189 -0.24208,0.87194 -0.17778,0.23913 -0.40432,0.43808 -0.67993,0.5979 -0.26657,0.15007 -0.52869,0.28989 -0.7863,0.41987 -0.002,0.12992 0.055,0.23475 0.17254,0.31522 0.17611,0.12064 0.27455,0.19405 0.29453,0.2183 0.35521,0.48262 0.74275,1.33813 1.15933,2.57238 0.38488,1.16342 0.79856,2.01765 1.24185,2.55569 0,0 1e-4,1.6e-4 1e-4,1.6e-4 z m -3.123,-9.37016 c -0.19027,-0.34563 -0.47316,-0.53671 -0.84826,-0.57089 -0.15386,-0.014 -0.29633,0.006 -0.427279,0.0597 -0.629508,0.38963 -0.899972,1.29207 -0.816455,2.69238 0.0019,0.0323 0.02634,0.36168 0.07317,0.98819 0.01093,0.18341 0.07836,0.28044 0.202191,0.29192 0.306089,-0.27235 0.617487,-0.54237 0.934357,-0.81086 0.36178,-0.31795 0.64874,-0.61489 0.86204,-0.89471 0.17417,-0.29466 0.25175,-0.62803 0.23208,-0.99968 -0.0145,-0.27321 -0.0849,-0.52552 -0.21184,-0.75598 z m 9.47606,9.25286 c -0.007,0.0788 -0.003,0.20388 0.0107,0.37541 0.0253,0.22935 0.0389,0.37826 0.0408,0.44649 0.012,0.42085 -0.0991,0.61987 -0.33308,0.59442 -0.85915,-0.0805 -2.2901,-0.2477 -5.12572,-0.73844 -0.15922,-0.0276 -0.24108,-0.0915 -0.2455,-0.19155 -0.004,-0.089 0.0597,-0.22682 0.19118,-0.41438 0.13101,-0.19873 0.20463,-0.3304 0.22054,-0.39412 0.13258,-0.81852 0.1745,-1.82718 0.12403,-3.02089 -4.5e-4,-0.0107 -0.0636,-0.95229 -0.1903,-2.8215 -0.0512,-0.76106 -0.0931,-1.29882 -0.12557,-1.61348 -0.0539,-0.59471 -0.12891,-1.12508 -0.22549,-1.59112 0.003,-0.1326 -0.0848,-0.3039 -0.26605,-0.51326 -0.17222,-0.21941 -0.2602,-0.36758 -0.26366,-0.44544 -0.004,-0.10008 0.0831,-0.1785 0.26266,-0.23574 1.56054,0.1763 4.68351,0.47452 4.68351,0.47452 0.20266,0.0165 0.37262,0.38061 0.50918,1.09426 0.0107,0.0466 0.0596,0.23085 0.14604,0.55571 0.0547,0.2311 0.0844,0.42628 0.089,0.58543 0.002,0.0796 -5.9e-4,0.15307 -0.008,0.2205 0.003,0.10234 -0.0384,0.15569 -0.12439,0.1599 -0.086,0.004 -0.16361,-0.0364 -0.23313,-0.12169 -0.22947,-0.31417 -0.45922,-0.62303 -0.68925,-0.92649 -0.28914,-0.35404 -0.5832,-0.54502 -0.88124,-0.5744 -0.51921,-0.0512 -0.95363,0.11605 -1.30198,0.50214 -0.29037,0.40384 -0.42307,0.90084 -0.39975,1.49547 0.0154,0.39254 0.10095,0.75492 0.256,1.08734 0.0798,0.0995 0.15764,0.15404 0.23386,0.16358 0.0953,0.0119 0.19211,-0.0599 0.2907,-0.216 0.0806,-0.13028 0.24199,-0.39149 0.24199,-0.39149 0.0715,-0.12634 0.24308,-0.24074 0.5155,-0.34567 0.28199,-0.10387 0.51871,-0.1469 0.71003,-0.12748 0.10521,0.0107 0.17288,0.0399 0.20305,0.0881 0.46365,0.76873 0.73551,1.58577 0.81903,2.45461 -0.0737,0.0721 -0.14365,0.10469 -0.21016,0.098 -0.0856,-0.009 -0.20235,-0.11112 -0.3508,-0.30735 -0.14845,-0.19629 -0.26126,-0.30993 -0.33811,-0.34079 -0.16477,-0.10812 -0.35187,-0.17375 -0.56125,-0.19773 -0.3331,-0.0382 -0.6243,0.0335 -0.8731,0.21521 -0.41093,0.40811 -0.59766,1.05711 -0.56295,1.95555 0.0152,0.39304 0.0749,0.84244 0.17866,1.34919 0.30404,0.84798 0.73781,1.3232 1.30145,1.41128 0.40592,0.11148 0.7046,-0.0421 0.89738,-0.45909 0.0238,-0.13256 0.0335,-0.26686 0.0292,-0.40283 -0.0113,-0.35142 -0.10495,-0.63298 -0.28121,-0.84572 -0.04,-0.0726 -0.16999,-0.1667 -0.39039,-0.284 -0.17271,-0.10021 -0.2611,-0.20705 -0.26502,-0.31999 -0.002,-0.0678 0.0138,-0.14448 0.0485,-0.23014 0.009,0.001 0.0278,-0.0134 0.055,-0.0438 0.0367,-0.0292 0.0692,-0.0421 0.0976,-0.0386 0.12117,0.0147 0.32799,0.0337 0.60971,0.0547 0.20348,0.023 0.61035,0.0663 0.61035,0.0663 0.2184,0.0453 0.41338,0.0984 0.58506,0.16007 0.11622,0.10176 0.18061,0.20964 0.19334,0.3243 0.0124,1.08984 0.0436,1.83086 0.0918,2.22092 0,0 1e-4,-6e-5 1e-4,-6e-5 z m 7.13077,-6.55294 c -0.11426,0.14199 -0.21492,0.1633 -0.30236,0.0639 -0.15548,-0.17666 -0.34665,-0.57515 -0.5751,-1.19733 -0.18879,-0.52046 -0.42473,-0.86922 -0.70738,-1.0478 -0.28065,-0.0185 -0.48252,0.0515 -0.60579,0.21254 -0.12323,0.16095 -0.19722,0.37268 -0.22218,0.63592 -0.025,0.26319 -0.05,0.51494 -0.0753,0.75522 -0.0124,2.97162 0.10563,5.29431 0.34622,6.94834 0.1387,0.45651 0.22209,0.71789 0.25135,0.78632 0.11699,0.29562 0.26571,0.52176 0.44613,0.67719 0.0582,0.14702 0.009,0.28024 -0.14981,0.39824 -0.6287,-0.009 -1.50511,0.0945 -2.82533,0.003 -0.13306,-0.0973 -0.21018,-0.19831 -0.23116,-0.30203 0.0439,-0.13484 0.16574,-0.34562 0.36619,-0.63465 0.17327,-0.24442 0.27235,-0.46424 0.29673,-0.65776 0.0968,-0.80817 0.13589,-1.7279 0.11599,-2.75708 -0.0106,-0.54869 -0.0436,-1.27615 -0.0994,-2.18038 -0.0592,-1.07853 -0.0972,-1.79485 -0.1142,-2.1635 -0.0445,-0.30979 -0.0988,-0.63129 -0.16331,-0.96451 -0.0645,-0.33335 -0.20853,-0.55419 -0.43246,-0.66457 -0.45443,-0.0725 -0.78225,0.11183 -0.98291,0.55804 -0.0108,0.0354 -0.25562,0.83953 -0.26642,0.87493 -0.1162,0.33531 -0.27338,0.54807 -0.47169,0.63752 -0.16419,-0.0677 -0.24957,-0.22169 -0.25597,-0.46082 -0.002,-0.0684 5.1e-4,-0.1706 0.006,-0.30668 0.0155,-0.13546 0.0225,-0.23166 0.021,-0.28865 -0.0255,-0.95741 0.018,-1.65941 0.13169,-2.10827 0.0553,-0.0993 0.15488,-0.16174 0.29891,-0.18814 1.09006,0.0811 2.79958,0.12974 5.00806,0.0164 0.21626,0.009 0.29342,0.0128 0.50968,0.0219 0.20426,0.0399 0.34116,0.15514 0.41077,0.34691 0.23093,0.89367 0.34735,1.60186 0.35151,2.12641 0.002,0.30796 -0.0242,0.59444 -0.0798,0.85937 0,0 1.1e-4,4e-5 1.1e-4,4e-5 z m 7.60116,6.80799 c 0.064,0.1541 0.0292,0.27567 -0.10409,0.36494 -0.10556,0.0183 -0.42401,0.0846 -1.07726,0.21711 -0.43454,0.0832 -0.78756,0.1126 -1.0608,0.088 -0.0656,-0.0569 -0.11207,-0.13914 -0.13958,-0.24674 -0.0366,-0.16217 -0.15367,-0.88719 -0.35476,-2.18238 -0.13706,-0.88926 -0.32866,-1.57173 -0.57486,-2.04872 -0.11389,-0.15521 -0.25687,-0.24006 -0.42876,-0.25472 -0.45907,0.0962 -0.79825,0.49676 -1.01728,1.20988 -0.0667,0.4029 -0.0997,0.79132 -0.0996,1.16493 1.9e-4,0.67908 0.11408,1.21105 0.34033,1.59133 0.0282,0.0646 0.15093,0.1917 0.36753,0.37895 0.16005,0.14921 0.22554,0.31516 0.19685,0.49934 -0.0662,0.12143 -0.18406,0.19341 -0.35343,0.21477 -0.21666,0.0165 -0.34804,0.0367 -0.39527,0.0654 -0.21693,-0.0195 -0.52171,0.005 -0.91712,0.0674 -0.43144,0.0547 -0.74366,0.0763 -0.93066,0.0688 -0.17864,-0.008 -0.26841,-0.0812 -0.26924,-0.21786 -2.8e-4,-0.0455 0.0135,-0.0978 0.0414,-0.157 0.26065,-0.46421 0.41842,-1.06443 0.47185,-1.79663 0.0361,-0.36678 0.0428,-1.02776 0.0195,-1.9814 -0.0109,-0.40834 -0.01,-1.08063 0.005,-2.01422 0.005,-0.8653 0.002,-1.53577 -0.009,-2.01313 -0.0321,-0.73751 -0.093,-1.41058 -0.18322,-2.02024 0.009,-0.12575 -0.0545,-0.26432 -0.1911,-0.41661 -0.12694,-0.16419 -0.19076,-0.28655 -0.19123,-0.36624 -5.5e-4,-0.0911 0.0473,-0.19023 0.14391,-0.29755 0.0485,-0.0252 0.14053,-0.0525 0.27644,-0.0826 0.26236,-0.003 0.55866,-0.014 0.88914,-0.0352 0.29927,-0.0192 0.76503,-0.0565 1.38554,-0.11598 0.63354,-0.0726 1.07889,-0.12285 1.40132,-0.15161 0.62408,-0.0557 1.16204,-0.0792 1.62014,-0.068 0.0675,0.0602 0.10077,0.12906 0.0999,0.20686 -5.9e-4,0.0556 -0.0307,0.14734 -0.0904,0.27559 -0.0497,0.11611 -0.0749,0.20758 -0.0756,0.27433 -0.0324,0.32567 0.0412,0.74663 0.21934,1.25981 0.17768,0.55744 0.26455,0.95698 0.26174,1.20101 -0.004,0.33276 -0.10388,0.6495 -0.29933,0.95108 -0.19528,0.29037 -0.43809,0.55438 -0.72782,0.79082 -0.28019,0.22423 -0.55473,0.43658 -0.8242,0.63701 -0.01,0.13559 0.0416,0.23026 0.15607,0.28327 0.17167,0.0796 0.26692,0.1288 0.28589,0.14874 0.33166,0.40486 0.67359,1.17868 1.02254,2.31421 0.32108,1.07296 0.69009,1.80261 1.10949,2.19305 0,0 6e-5,1.3e-4 6e-5,1.3e-4 z m -2.60804,-8.73319 c -0.17226,-0.319 -0.44786,-0.46104 -0.8261,-0.42687 -0.15515,0.014 -0.3007,0.0606 -0.43656,0.14012 -0.66091,0.52017 -0.98791,1.51101 -0.9875,2.9849 1e-5,0.0339 0.005,0.37881 0.0147,1.0346 4e-5,0.19246 0.0623,0.28296 0.18668,0.27103 0.32533,-0.34781 0.65691,-0.69759 0.99386,-1.04791 0.38512,-0.41163 0.69521,-0.78813 0.92811,-1.12696 0.19462,-0.34614 0.29363,-0.70941 0.29617,-1.09017 0.002,-0.28007 -0.0544,-0.52601 -0.16932,-0.73871 0,0 1e-5,-3e-5 1e-5,-3e-5 z m 9.71352,5.15078 c 0.031,0.23747 0.043,0.47075 0.036,0.70008 -0.0273,0.89688 -0.32897,1.54511 -0.90239,1.97391 -0.21525,0.21179 -0.52801,0.34826 -0.93758,0.41347 -0.32345,0.0331 -0.65147,0.0743 -0.98424,0.12472 -0.66179,0.09 -1.32815,0.18989 -1.97874,0.29118 -0.78542,0.0595 -1.28033,-0.23395 -1.48749,-0.88873 -0.0991,-0.3117 -0.14546,-0.68238 -0.13873,-1.11081 0.005,-0.34038 0.0505,-0.79724 0.13588,-1.36832 0.0735,-0.46612 0.26159,-1.40697 0.56313,-2.78351 0.25075,-1.15675 0.41277,-2.09203 0.48436,-2.81864 0.0604,-0.64811 -0.027,-1.13949 -0.26387,-1.47704 -0.0159,-0.19486 0.0541,-0.31052 0.21026,-0.34657 0.52013,-0.0475 0.99823,-0.0978 1.51836,-0.14532 0.62396,-0.0585 1.11732,-0.0892 1.48745,-0.0993 0.53475,-0.0293 1.02357,-0.0216 1.46856,0.0205 0.0949,0.0714 0.14077,0.15973 0.13773,0.26479 -0.002,0.0736 -0.0392,0.18463 -0.1113,0.33378 -0.0624,0.14888 -0.0946,0.26043 -0.0967,0.33412 -0.0183,0.96837 0.0806,2.09502 0.29323,3.37235 0.18992,1.06908 0.37843,2.13846 0.56595,3.20949 0,0 1.1e-4,-10e-5 1.1e-4,-10e-5 z m -1.89386,0.0723 c 0.083,-0.60126 0.13258,-1.19763 0.14861,-1.79102 0.0389,-1.44026 -0.12225,-2.74885 -0.48789,-3.93539 -0.14267,-0.45736 -0.41331,-0.67502 -0.81086,-0.64432 -0.10668,0.008 -0.20916,0.0431 -0.30737,0.10492 -0.3758,0.34206 -0.65195,0.81541 -0.82876,1.41642 -0.10433,0.36693 -0.19769,0.91701 -0.28009,1.65115 -0.10456,0.87686 -0.16118,1.55083 -0.17062,2.01684 -0.0264,1.30284 0.2216,2.25577 0.7396,2.85334 0.28096,0.18306 0.61226,0.19631 0.99614,0.0463 0.27905,-0.14588 0.50434,-0.39883 0.67558,-0.75908 0.0709,-0.15743 0.17907,-0.47734 0.32569,-0.95907 0,0 -3e-5,-4e-5 -3e-5,-4e-5 z"
       id="text9"
       aria-label="RETRO"
       sodipodi:nodetypes="sccccccccscccccccscccccccsccscscscccscccsccsssscsccccsssccscssccsccccscsccscsccscscscccsccsscscscccsccsccscccccccsccsscccccccccsccsccccscscccccsccsccccccccscccccccscccccccsccscscscccscccscccssscsccccssscscccccsccccccccscccccsscscccscccss"
       inkscape:path-effect="#path-effect1"
       inkscape:original-d="m 104.31076,155.18153 c 0.0659,0.14111 0.0329,0.23989 -0.0988,0.29634 -0.0847,0 -0.44215,0.009 -1.07245,0.0282 -0.43274,0.009 -0.78552,-0.0141 -1.05833,-0.0706 -0.0659,-0.0565 -0.1129,-0.13172 -0.14111,-0.22577 -0.0376,-0.14111 -0.1599,-0.76671 -0.36689,-1.87678 -0.14111,-0.762 -0.33396,-1.35467 -0.57855,-1.778 -0.11289,-0.14111 -0.25401,-0.22578 -0.42334,-0.254 -0.45155,0.0376 -0.785515,0.34334 -1.001886,0.91722 -0.06585,0.32926 -0.09878,0.64911 -0.09878,0.95956 0,0.56444 0.112889,1.01599 0.338666,1.35466 0.02822,0.0565 0.150516,0.17406 0.36689,0.35278 0.15992,0.14111 0.22578,0.28693 0.19756,0.43744 -0.0659,0.0941 -0.18346,0.14111 -0.35278,0.14111 -0.216374,-0.009 -0.348077,-0.005 -0.395114,0.0141 -0.216371,-0.0376 -0.522111,-0.047 -0.917222,-0.0282 -0.43274,0.009 -0.743184,0.005 -0.931332,-0.0141 -0.178741,-0.0188 -0.268111,-0.0846 -0.268111,-0.19755 0,-0.0376 0.01411,-0.0799 0.04233,-0.127 0.263407,-0.36689 0.423333,-0.85138 0.479777,-1.45345 0.03763,-0.30103 0.04703,-0.84666 0.02822,-1.63688 -0.0094,-0.33867 -0.0047,-0.8937 0.01411,-1.66511 0.0094,-0.71497 0.0094,-1.27 0,-1.66511 -0.02822,-0.61148 -0.08466,-1.17122 -0.169333,-1.67922 0.0094,-0.10349 -0.05174,-0.22108 -0.183445,-0.35278 -0.122296,-0.14111 -0.183444,-0.2446 -0.183444,-0.31045 0,-0.0752 0.04704,-0.15521 0.141111,-0.23988 0.04703,-0.0188 0.136404,-0.0376 0.268111,-0.0565 0.254,0.009 0.540926,0.0141 0.860777,0.0141 0.291629,0 0.738481,-0.005 1.340555,-0.0141 0.60207,-0.0188 1.05363,-0.0282 1.35467,-0.0282 0.60207,0 1.12418,0.0235 1.56633,0.0705 0.0659,0.0565 0.0988,0.11762 0.0988,0.18345 0,0.047 -0.0282,0.12226 -0.0847,0.22578 -0.0471,0.0941 -0.0706,0.16933 -0.0706,0.22577 -0.0282,0.27282 0.0471,0.63501 0.22578,1.08656 0.17874,0.48919 0.26811,0.83726 0.26811,1.04422 0,0.28222 -0.0941,0.54092 -0.28222,0.77611 -0.18815,0.22578 -0.42333,0.42334 -0.70556,0.59267 -0.27281,0.15993 -0.54092,0.31044 -0.80433,0.45155 -0.009,0.11289 0.0423,0.19756 0.15522,0.254 0.16933,0.0847 0.26341,0.13641 0.28223,0.15522 0.32925,0.3763 0.67262,1.06775 1.03011,2.07434 0.32925,0.95015 0.70555,1.62277 1.12888,2.01788 z m -2.65288,-7.69055 c -0.16933,-0.28222 -0.43745,-0.42333 -0.80434,-0.42333 -0.15051,0 -0.29162,0.0282 -0.42333,0.0847 -0.639702,0.3857 -0.959553,1.19003 -0.959553,2.413 0,0.0282 0.0047,0.31512 0.01411,0.86077 0,0.15993 0.06115,0.23989 0.183444,0.23989 0.319852,-0.26341 0.644409,-0.52681 0.973669,-0.79022 0.37629,-0.31045 0.67733,-0.59737 0.90311,-0.86078 0.18815,-0.27281 0.28222,-0.56915 0.28222,-0.889 0,-0.23518 -0.0564,-0.44685 -0.16933,-0.635 z m 9.05933,6.81566 c -0.009,0.0659 -0.009,0.16935 0,0.31045 0.0188,0.18815 0.0282,0.31044 0.0282,0.36689 0,0.34807 -0.11759,0.52211 -0.35278,0.52211 -0.72437,0.009 -2.44122,0.0141 -5.15055,0.0141 -0.15993,0 -0.23989,-0.0423 -0.23989,-0.127 0,-0.0753 0.0706,-0.20226 0.21167,-0.381 0.14111,-0.18815 0.22107,-0.31044 0.23989,-0.36689 0.16933,-0.71496 0.25399,-1.57574 0.25399,-2.58233 0,-0.009 -0.0235,-0.79962 -0.0705,-2.37067 -0.0188,-0.6397 -0.0376,-1.09125 -0.0564,-1.35466 -0.0282,-0.49859 -0.0799,-0.94074 -0.15523,-1.32644 0.009,-0.11289 -0.0706,-0.2493 -0.23989,-0.40923 -0.15992,-0.16933 -0.23988,-0.28692 -0.23988,-0.35277 0,-0.0847 0.0894,-0.15993 0.26811,-0.22578 h 4.57199 c 0.19756,0 0.35278,0.29163 0.46567,0.87489 0.009,0.0376 0.0517,0.18812 0.127,0.45155 0.047,0.18815 0.0705,0.34807 0.0705,0.47978 0,0.0659 -0.005,0.12701 -0.0141,0.18344 0,0.0847 -0.0423,0.13171 -0.127,0.14112 -0.0847,0.009 -0.15992,-0.0188 -0.22577,-0.0847 -0.21637,-0.24459 -0.43274,-0.48448 -0.64911,-0.71967 -0.27282,-0.27281 -0.55504,-0.40922 -0.84667,-0.40922 -0.508,0 -0.94074,0.17874 -1.29822,0.53622 -0.30104,0.36689 -0.45156,0.79963 -0.45156,1.29822 0,0.32926 0.0706,0.62559 0.21167,0.889 0.0753,0.0753 0.15052,0.11289 0.22578,0.11289 0.0941,0 0.19285,-0.0705 0.29633,-0.21166 l 0.254,-0.35278 c 0.0753,-0.11289 0.2493,-0.22578 0.52211,-0.33867 0.28222,-0.11289 0.51741,-0.16933 0.70556,-0.16933 0.10348,0 0.16933,0.0188 0.19755,0.0564 0.43274,0.60207 0.67733,1.26059 0.73378,1.97556 -0.0753,0.0659 -0.14582,0.0988 -0.21167,0.0988 -0.0847,0 -0.19755,-0.0753 -0.33866,-0.22577 -0.14111,-0.15052 -0.2493,-0.23519 -0.32456,-0.254 -0.15993,-0.0753 -0.34337,-0.11289 -0.55033,-0.11289 -0.32926,0 -0.62089,0.0894 -0.87489,0.26811 -0.42333,0.3857 -0.635,0.95485 -0.635,1.70744 0,0.32926 0.0423,0.70085 0.127,1.11478 0.27281,0.67733 0.69144,1.0207 1.25589,1.03011 0.40451,0.047 0.71025,-0.11293 0.91722,-0.47978 0.0282,-0.11289 0.0423,-0.22577 0.0423,-0.33866 0,-0.29163 -0.0847,-0.51741 -0.254,-0.67734 -0.0376,-0.0565 -0.1646,-0.12232 -0.381,-0.19755 -0.16933,-0.0659 -0.254,-0.14583 -0.254,-0.23989 0,-0.0565 0.0188,-0.12232 0.0564,-0.19756 0.009,0 0.0282,-0.0141 0.0564,-0.0423 0.0376,-0.0282 0.0705,-0.0423 0.0988,-0.0423 0.12229,0 0.32455,-0.005 0.60678,-0.0141 h 0.60677 c 0.21637,0.0188 0.40923,0.047 0.57856,0.0847 0.11289,0.0753 0.17403,0.15993 0.18344,0.254 -0.0188,0.90311 -0.009,1.51459 0.0282,1.83444 z m 7.18253,-5.53155 c -0.11289,0.11289 -0.21166,0.12699 -0.29633,0.0423 -0.15052,-0.15052 -0.33396,-0.48448 -0.55033,-1.00189 -0.17874,-0.43274 -0.40452,-0.72437 -0.67734,-0.87489 -0.27281,-0.0188 -0.47037,0.0376 -0.59266,0.16933 -0.1223,0.13171 -0.19756,0.30574 -0.22578,0.52211 -0.0282,0.21637 -0.0564,0.42334 -0.0847,0.62089 -0.0565,2.44593 0.0235,4.35093 0.23989,5.715 0.13171,0.37629 0.21167,0.59266 0.23989,0.64911 0.11289,0.24459 0.2587,0.43274 0.43745,0.56444 0.0565,0.1223 0.005,0.23049 -0.15523,0.32456 -0.63029,-0.0188 -1.51116,0.0552 -2.83633,0.0282 -0.1317,-0.0753 -0.20696,-0.15522 -0.22578,-0.23989 0.0471,-0.11289 0.17407,-0.29163 0.381,-0.53622 0.17875,-0.20696 0.28223,-0.3904 0.31045,-0.55033 0.11289,-0.66793 0.16933,-1.42522 0.16933,-2.27189 0,-0.45155 -0.0188,-1.04892 -0.0564,-1.79211 -0.0376,-0.88429 -0.0611,-1.47696 -0.0706,-1.778 -0.0376,-0.254 -0.0846,-0.51741 -0.14111,-0.79022 -0.0565,-0.27281 -0.19287,-0.45155 -0.40922,-0.53622 -0.44215,-0.0471 -0.7667,0.11756 -0.97367,0.49389 -0.0941,0.24459 -0.18815,0.48918 -0.28222,0.73377 -0.12229,0.28223 -0.28222,0.46567 -0.47978,0.55034 -0.15993,-0.0471 -0.23989,-0.16936 -0.23989,-0.36689 0,-0.0565 0.005,-0.14113 0.0141,-0.254 0.0188,-0.11289 0.0282,-0.19285 0.0282,-0.23989 0,-0.79022 0.0611,-1.37348 0.18344,-1.74978 0.0565,-0.0847 0.15525,-0.14111 0.29634,-0.16933 1.08185,0.0188 2.70462,0 4.86833,-0.0564 0.16933,0.009 0.33395,0.0188 0.49388,0.0282 0.19756,0.0376 0.32926,0.13638 0.39511,0.29633 0.21637,0.74319 0.32456,1.33115 0.32456,1.76389 0,0.254 -0.0282,0.48918 -0.0847,0.70555 z m 7.52121,6.40644 c 0.0659,0.14111 0.0329,0.23989 -0.0988,0.29634 -0.0847,0 -0.44215,0.009 -1.07244,0.0282 -0.43274,0.009 -0.78552,-0.0141 -1.05834,-0.0706 -0.0659,-0.0565 -0.1129,-0.13172 -0.14111,-0.22577 -0.0376,-0.14111 -0.1599,-0.76671 -0.36689,-1.87678 -0.14111,-0.762 -0.33396,-1.35467 -0.57855,-1.778 -0.11289,-0.14111 -0.254,-0.22578 -0.42333,-0.254 -0.45156,0.0376 -0.78552,0.34334 -1.00189,0.91722 -0.0659,0.32926 -0.0988,0.64911 -0.0988,0.95956 0,0.56444 0.11289,1.01599 0.33867,1.35466 0.0282,0.0565 0.1505,0.17406 0.36689,0.35278 0.15992,0.14111 0.22577,0.28693 0.19755,0.43744 -0.0659,0.0941 -0.18346,0.14111 -0.35278,0.14111 -0.21637,-0.009 -0.34807,-0.005 -0.39511,0.0141 -0.21637,-0.0376 -0.52211,-0.047 -0.91722,-0.0282 -0.43274,0.009 -0.74318,0.005 -0.93133,-0.0141 -0.17874,-0.0188 -0.26811,-0.0846 -0.26811,-0.19755 0,-0.0376 0.0141,-0.0799 0.0423,-0.127 0.26341,-0.36689 0.42333,-0.85138 0.47978,-1.45345 0.0376,-0.30103 0.047,-0.84666 0.0282,-1.63688 -0.009,-0.33867 -0.005,-0.8937 0.0141,-1.66511 0.009,-0.71497 0.009,-1.27 0,-1.66511 -0.0282,-0.61148 -0.0846,-1.17122 -0.16933,-1.67922 0.009,-0.10349 -0.0517,-0.22108 -0.18345,-0.35278 -0.12229,-0.14111 -0.18344,-0.2446 -0.18344,-0.31045 0,-0.0752 0.047,-0.15521 0.14111,-0.23988 0.0471,-0.0188 0.13644,-0.0376 0.26811,-0.0565 0.254,0.009 0.54093,0.0141 0.86078,0.0141 0.29163,0 0.73848,-0.005 1.34055,-0.0141 0.60207,-0.0188 1.05363,-0.0282 1.35467,-0.0282 0.60207,0 1.12418,0.0235 1.56633,0.0705 0.0659,0.0565 0.0988,0.11762 0.0988,0.18345 0,0.047 -0.0282,0.12226 -0.0847,0.22578 -0.047,0.0941 -0.0705,0.16933 -0.0705,0.22577 -0.0282,0.27282 0.0471,0.63501 0.22577,1.08656 0.17875,0.48919 0.26812,0.83726 0.26812,1.04422 0,0.28222 -0.0941,0.54092 -0.28223,0.77611 -0.18815,0.22578 -0.42333,0.42334 -0.70555,0.59267 -0.27281,0.15993 -0.54092,0.31044 -0.80433,0.45155 -0.009,0.11289 0.0423,0.19756 0.15522,0.254 0.16933,0.0847 0.26341,0.13641 0.28222,0.15522 0.32926,0.3763 0.67263,1.06775 1.03011,2.07434 0.32926,0.95015 0.70556,1.62277 1.12889,2.01788 z m -2.65289,-7.69055 c -0.16933,-0.28222 -0.43744,-0.42333 -0.80433,-0.42333 -0.15052,0 -0.29163,0.0282 -0.42333,0.0847 -0.63971,0.3857 -0.95956,1.19003 -0.95956,2.413 0,0.0282 0.005,0.31512 0.0141,0.86077 0,0.15993 0.0612,0.23989 0.18345,0.23989 0.31985,-0.26341 0.6444,-0.52681 0.97366,-0.79022 0.3763,-0.31045 0.67734,-0.59737 0.90311,-0.86078 0.18815,-0.27281 0.28222,-0.56915 0.28222,-0.889 0,-0.23518 -0.0564,-0.44685 -0.16933,-0.635 z m 9.60966,5.40455 c 0.0376,0.21637 0.0564,0.42804 0.0564,0.635 0,0.80904 -0.27752,1.37819 -0.83256,1.70745 -0.20696,0.16933 -0.5127,0.2587 -0.91722,0.26811 -0.31985,-0.009 -0.64441,-0.0141 -0.97367,-0.0141 -0.65851,-0.009 -1.31233,-0.0188 -1.96144,-0.0282 -0.78081,-0.0659 -1.27941,-0.39512 -1.49578,-0.98777 -0.10348,-0.28223 -0.15522,-0.60678 -0.15522,-0.97367 0,-0.29163 0.0376,-0.67733 0.11289,-1.15711 0.0659,-0.39511 0.2352,-1.17122 0.508,-2.32833 0.22578,-0.96896 0.36689,-1.76389 0.42333,-2.38478 0.0471,-0.55503 -0.047,-0.98777 -0.28222,-1.29822 -0.0188,-0.16933 0.047,-0.26341 0.19756,-0.28222 0.24459,0 0.73378,-0.005 1.46755,-0.0141 0.60207,-0.009 1.08185,-0.009 1.43933,0 0.51741,0 0.99248,0.0235 1.42523,0.0706 0.0941,0.0659 0.14111,0.14583 0.14111,0.23988 0,0.0659 -0.0329,0.16465 -0.0988,0.29634 -0.0565,0.1317 -0.0847,0.23048 -0.0847,0.29633 0.009,0.86548 0.1364,1.87678 0.381,3.03389 0.21637,0.96896 0.43274,1.94262 0.64911,2.92099 z m -1.86266,-0.0847 c 0.0659,-0.52681 0.0988,-1.05363 0.0988,-1.58045 0,-1.2794 -0.19285,-2.45532 -0.57855,-3.52777 -0.15052,-0.41393 -0.41863,-0.62089 -0.80433,-0.62089 -0.10349,0 -0.20227,0.0235 -0.29634,0.0706 -0.35748,0.27281 -0.61618,0.66322 -0.77611,1.17122 -0.0941,0.31044 -0.17404,0.78081 -0.23989,1.41111 -0.0847,0.75259 -0.127,1.33115 -0.127,1.73566 0,1.12889 0.26341,1.98967 0.79023,2.58233 0.28222,0.19756 0.61148,0.25401 0.98777,0.16934 0.27282,-0.0941 0.48919,-0.29163 0.64911,-0.59267 0.0659,-0.1317 0.16465,-0.40451 0.29634,-0.81844 z" />
    <path
       style="opacity:1;fill:#fbf5f0;fill-opacity:1;stroke:#000000;stroke-width:1.846;stroke-linejoin:bevel;stroke-miterlimit:3.4;stroke-dasharray:none"
       d="m 123.21662,110.43 c -7.49116,-10.978433 -2.86931,-14.870656 2.71232,-17.048852 5.29548,-2.066527 -1.5499,-11.495052 -1.5499,-11.495052 0,0 21.31106,3.487264 5.68296,15.886419 C 118.60664,106.86106 123.21662,110.43 123.21662,110.43 Z"
       id="path19"
       sodipodi:nodetypes="cscsc" />
    <path
       style="fill:#fbf5f0;fill-opacity:1;stroke:#000000;stroke-width:1.22706;stroke-linejoin:bevel;stroke-miterlimit:3.4;stroke-dasharray:none"
       d="m 109.10091,111.52054 c -5.07102,-7.16579 -1.94233,-9.7063 1.83606,-11.12804 3.58469,-1.348851 -1.04917,-7.502989 -1.04917,-7.502989 0,0 14.42617,2.276189 3.84698,10.369299 -7.75452,5.93223 -4.63387,8.26173 -4.63387,8.26173 z"
       id="path19-1"
       sodipodi:nodetypes="cscsc" />
    <path
       id="path2-8"
       style="fill:#e9c7af;fill-opacity:1;stroke:#000000;stroke-width:1.846;stroke-linejoin:bevel;stroke-miterlimit:3.4;stroke-dasharray:none;stroke-opacity:1"
       d="m 136.70226,119.56744 c -0.14159,-0.26865 -0.36529,-0.53822 -0.6904,-0.80718 -3.3005,-2.73056 -15.97954,-4.55118 -28.2577,-3.7574 -8.93417,0.5776 -15.30326,2.4994 -14.91589,4.55115 a 44.782261,9.1283507 0 0 0 21.99246,1.20354 44.782261,9.1283507 0 0 0 9.72602,-0.22737 c 0.19343,-0.40944 6.8e-4,-0.83315 -0.66146,-1.24954 -1.97274,-1.24058 -8.20355,-2.07026 -13.84153,-1.53582 -3.84179,0.36417 -6.46622,1.42406 -4.33307,2.31665 1.19253,0.499 4.49095,0.88099 6.63319,0.4253 v 0 c -2.14224,0.45569 -5.44066,0.0737 -6.63319,-0.4253 -2.13315,-0.89259 0.49128,-1.95248 4.33307,-2.31665 5.63798,-0.53444 11.86879,0.29524 13.84153,1.53582 0.66214,0.41639 0.85489,0.8401 0.66146,1.24954 a 44.782261,9.1283507 0 0 0 12.14551,-0.96274 z" />
    <path
       id="path42"
       style="fill:#040201;fill-opacity:1;stroke:#000000;stroke-width:1.846;stroke-linejoin:bevel;stroke-miterlimit:3.4;stroke-dasharray:none;stroke-opacity:1"
       d="m 147.61374,117.8182 c -5.36051,-3.98699 -23.90893,-6.59161 -42.1597,-5.55729 -11.95138,0.67732 -21.11173,2.84201 -23.97683,5.42189 a 44.782261,9.1283507 0 0 0 11.36106,1.87121 c -0.38737,-2.05175 5.98172,-3.97355 14.91589,-4.55115 12.27816,-0.79378 24.9572,1.02684 28.2577,3.7574 0.32511,0.26896 0.54881,0.53853 0.6904,0.80718 a 44.782261,9.1283507 0 0 0 10.91148,-1.74924 z" />
    <path
       id="path41"
       style="fill:#dfad8a;fill-opacity:1;stroke:#000000;stroke-width:1.846;stroke-linejoin:bevel;stroke-miterlimit:3.4;stroke-dasharray:none;stroke-opacity:1"
       d="m 114.69689,109.83367 a 44.782261,9.1283507 0 0 0 -40.857458,5.43119 44.782261,9.1283507 0 0 0 7.637778,2.41794 c 2.8651,-2.57988 12.02545,-4.74457 23.97683,-5.42189 18.25077,-1.03432 36.79919,1.5703 42.1597,5.55729 a 44.782261,9.1283507 0 0 0 8.11372,-2.51045 44.782261,9.1283507 0 0 0 -41.03057,-5.47408 z" />
    <path
       style="opacity:0.99999999;fill:url(#linearGradient50);fill-opacity:1;fill-rule:evenodd;stroke:#000000;stroke-width:2;stroke-linejoin:bevel;stroke-miterlimit:3.4;stroke-dasharray:none;stroke-opacity:1"
       d="m 74.889299,115.80443 c -36.896678,-25.206643 -2.257167,24.31416 -4.018449,24.84132 -10.850599,3.24767 4.201107,3.47048 4.201107,3.47048 0,0 6.063407,0.15336 -7.671587,-18.9963 -12.155089,-16.94693 7.488929,-9.3155 7.488929,-9.3155 z"
       id="path43"
       sodipodi:nodetypes="cscsc" />
  </g>
</svg>
